<?xml version="1.0" encoding="UTF-8"?>
<svg version="1.1" xmlns="http://www.w3.org/2000/svg" width="180" height="180">
<path d="M0 0 C22.77 0 45.54 0 69 0 C69 1.32 69 2.64 69 4 C72.3 4 75.6 4 79 4 C79 5.65 79 7.3 79 9 C81.97 9 84.94 9 88 9 C88 10.65 88 12.3 88 14 C89.65 14 91.3 14 93 14 C93.33 15.65 93.66 17.3 94 19 C95.32 19 96.64 19 98 19 C98 20.65 98 22.3 98 24 C99.65 24 101.3 24 103 24 C103 25.65 103 27.3 103 29 C105.97 29 108.94 29 112 29 C112.33 32.3 112.66 35.6 113 39 C111.35 39 109.7 39 108 39 C108 40.65 108 42.3 108 44 C104.7 44 101.4 44 98 44 C98 45.65 98 47.3 98 49 C96.68 49 95.36 49 94 49 C94 50.65 94 52.3 94 54 C90.7 54 87.4 54 84 54 C84 55.32 84 56.64 84 58 C85.65 58 87.3 58 89 58 C89 60.97 89 63.94 89 67 C90.65 67.33 92.3 67.66 94 68 C94 69.65 94 71.3 94 73 C91.525 73.495 91.525 73.495 89 74 C89 74.99 89 75.98 89 77 C101.54 77 114.08 77 127 77 C127 90.2 127 103.4 127 117 C125.68 117 124.36 117 123 117 C123 120.3 123 123.6 123 127 C121.35 127 119.7 127 118 127 C118.01160156 127.67546875 118.02320313 128.3509375 118.03515625 129.046875 C118.04417969 129.93890625 118.05320313 130.8309375 118.0625 131.75 C118.07410156 132.63171875 118.08570313 133.5134375 118.09765625 134.421875 C118.00826198 136.7818838 117.66912821 138.74498524 117 141 C115.68 141 114.36 141 113 141 C113 142.65 113 144.3 113 146 C111.35 146.33 109.7 146.66 108 147 C108 148.32 108 149.64 108 151 C106.35 151 104.7 151 103 151 C103 152.65 103 154.3 103 156 C101.35 156 99.7 156 98 156 C98 157.65 98 159.3 98 161 C96.68 161 95.36 161 94 161 C94 162.65 94 164.3 94 166 C92.35 166 90.7 166 89 166 C88.67 167.65 88.34 169.3 88 171 C85.03 171 82.06 171 79 171 C79 172.65 79 174.3 79 176 C75.7 176 72.4 176 69 176 C69 177.32 69 178.64 69 180 C46.23 180 23.46 180 0 180 C0 178.68 0 177.36 0 176 C-3.3 176 -6.6 176 -10 176 C-10 174.35 -10 172.7 -10 171 C-12.97 171 -15.94 171 -19 171 C-19.495 168.525 -19.495 168.525 -20 166 C-21.32 166 -22.64 166 -24 166 C-24 164.35 -24 162.7 -24 161 C-25.65 161 -27.3 161 -29 161 C-29 159.35 -29 157.7 -29 156 C-30.65 156 -32.3 156 -34 156 C-34 154.35 -34 152.7 -34 151 C-35.65 151 -37.3 151 -39 151 C-39 149.68 -39 148.36 -39 147 C-40.65 147 -42.3 147 -44 147 C-44 145.35 -44 143.7 -44 142 C-45.65 141.67 -47.3 141.34 -49 141 C-49 138.03 -49 135.06 -49 132 C-50.32 132 -51.64 132 -53 132 C-53 104.28 -53 76.56 -53 48 C-51.68 48 -50.36 48 -49 48 C-49 45.03 -49 42.06 -49 39 C-46.525 38.505 -46.525 38.505 -44 38 C-43.67 36.35 -43.34 34.7 -43 33 C-41.68 33 -40.36 33 -39 33 C-39 31.68 -39 30.36 -39 29 C-37.35 29 -35.7 29 -34 29 C-34 27.35 -34 25.7 -34 24 C-32.35 24 -30.7 24 -29 24 C-29 22.35 -29 20.7 -29 19 C-27.35 19 -25.7 19 -24 19 C-24 17.35 -24 15.7 -24 14 C-22.68 14 -21.36 14 -20 14 C-19.67 12.35 -19.34 10.7 -19 9 C-16.03 9 -13.06 9 -10 9 C-10 7.35 -10 5.7 -10 4 C-6.7 4 -3.4 4 0 4 C0 2.68 0 1.36 0 0 Z M69 40 C69 40.99 69 41.98 69 43 C70.32 43 71.64 43 73 43 C73 42.01 73 41.02 73 40 C71.68 40 70.36 40 69 40 Z M30 44 C30 45.32 30 46.64 30 48 C32.97 48 35.94 48 39 48 C39 46.68 39 45.36 39 44 C36.03 44 33.06 44 30 44 Z M74 44 C74 45.32 74 46.64 74 48 C75.32 48 76.64 48 78 48 C78 46.68 78 45.36 78 44 C76.68 44 75.36 44 74 44 Z M-13 49 C-13 50.32 -13 51.64 -13 53 C-12.01 53 -11.02 53 -10 53 C-10 51.68 -10 50.36 -10 49 C-10.99 49 -11.98 49 -13 49 Z M79 49 C79 50.32 79 51.64 79 53 C80.32 53 81.64 53 83 53 C83 51.68 83 50.36 83 49 C81.68 49 80.36 49 79 49 Z M-4 54 C-4 55.32 -4 56.64 -4 58 C-2.68 58 -1.36 58 0 58 C0 56.68 0 55.36 0 54 C-1.32 54 -2.64 54 -4 54 Z M69 54 C69 55.32 69 56.64 69 58 C70.32 58 71.64 58 73 58 C73 56.68 73 55.36 73 54 C71.68 54 70.36 54 69 54 Z M-18 59 C-18 60.32 -18 61.64 -18 63 C-17.01 63 -16.02 63 -15 63 C-15 61.68 -15 60.36 -15 59 C-15.99 59 -16.98 59 -18 59 Z M30 59 C30 64.94 30 70.88 30 77 C34.62 77 39.24 77 44 77 C44 76.01 44 75.02 44 74 C42.68 73.67 41.36 73.34 40 73 C39.67 68.38 39.34 63.76 39 59 C36.03 59 33.06 59 30 59 Z M11 64 C10.67 65.32 10.34 66.64 10 68 C8.68 68.33 7.36 68.66 6 69 C6 69.99 6 70.98 6 72 C8.64 72 11.28 72 14 72 C14 69.36 14 66.72 14 64 C13.01 64 12.02 64 11 64 Z M55 64 C54.67 66.97 54.34 69.94 54 73 C52.68 73.33 51.36 73.66 50 74 C50 74.99 50 75.98 50 77 C55.94 77 61.88 77 68 77 C68 76.01 68 75.02 68 74 C66.35 74 64.7 74 63 74 C63 70.7 63 67.4 63 64 C60.36 64 57.72 64 55 64 Z M-9 74 C-9 74.99 -9 75.98 -9 77 C-7.68 77 -6.36 77 -5 77 C-5 76.01 -5 75.02 -5 74 C-6.32 74 -7.64 74 -9 74 Z M74 74 C74 74.99 74 75.98 74 77 C75.32 77 76.64 77 78 77 C78 76.01 78 75.02 78 74 C76.68 74 75.36 74 74 74 Z M6 83 C6 87.62 6 92.24 6 97 C8.64 97 11.28 97 14 97 C14 92.38 14 87.76 14 83 C11.36 83 8.72 83 6 83 Z M26 83 C26 87.62 26 92.24 26 97 C26.99 97 27.98 97 29 97 C29 92.38 29 87.76 29 83 C28.01 83 27.02 83 26 83 Z M-13 88 C-13 89.32 -13 90.64 -13 92 C-10.36 92 -7.72 92 -5 92 C-5 90.68 -5 89.36 -5 88 C-7.64 88 -10.28 88 -13 88 Z M6 108 C6 110.64 6 113.28 6 116 C8.64 116 11.28 116 14 116 C14 113.36 14 110.72 14 108 C11.36 108 8.72 108 6 108 Z M30 108 C30 112.29 30 116.58 30 121 C32.97 121 35.94 121 39 121 C39 117.7 39 114.4 39 111 C40.65 111 42.3 111 44 111 C44 110.01 44 109.02 44 108 C39.38 108 34.76 108 30 108 Z M50 108 C50 108.99 50 109.98 50 111 C51.32 111.33 52.64 111.66 54 112 C54.33 113.32 54.66 114.64 55 116 C57.64 116 60.28 116 63 116 C63 114.35 63 112.7 63 111 C66.3 111 69.6 111 73 111 C73 110.01 73 109.02 73 108 C65.41 108 57.82 108 50 108 Z M16 117 C16 118.32 16 119.64 16 121 C16.99 121 17.98 121 19 121 C19 119.68 19 118.36 19 117 C18.01 117 17.02 117 16 117 Z M-4 122 C-4 123.32 -4 124.64 -4 126 C-2.68 126 -1.36 126 0 126 C0 124.68 0 123.36 0 122 C-1.32 122 -2.64 122 -4 122 Z M69 122 C69 123.32 69 124.64 69 126 C70.32 126 71.64 126 73 126 C73 124.68 73 123.36 73 122 C71.68 122 70.36 122 69 122 Z M-13 127 C-13 128.32 -13 129.64 -13 131 C-12.01 131 -11.02 131 -10 131 C-10 129.68 -10 128.36 -10 127 C-10.99 127 -11.98 127 -13 127 Z M79 127 C79 128.32 79 129.64 79 131 C80.32 131 81.64 131 83 131 C83 129.68 83 128.36 83 127 C81.68 127 80.36 127 79 127 Z M-9 132 C-9 133.32 -9 134.64 -9 136 C-7.68 136 -6.36 136 -5 136 C-5 134.68 -5 133.36 -5 132 C-6.32 132 -7.64 132 -9 132 Z M30 132 C30 133.32 30 134.64 30 136 C32.97 136 35.94 136 39 136 C39 134.68 39 133.36 39 132 C36.03 132 33.06 132 30 132 Z M74 132 C74 133.32 74 134.64 74 136 C75.32 136 76.64 136 78 136 C78 134.68 78 133.36 78 132 C76.68 132 75.36 132 74 132 Z M-4 137 C-4 137.99 -4 138.98 -4 140 C-2.68 140 -1.36 140 0 140 C0 139.01 0 138.02 0 137 C-1.32 137 -2.64 137 -4 137 Z M69 137 C69 137.99 69 138.98 69 140 C70.32 140 71.64 140 73 140 C73 139.01 73 138.02 73 137 C71.68 137 70.36 137 69 137 Z " fill="#4A8441" transform="translate(53,0)"/>
<path d="M0 0 C22.77 0 45.54 0 69 0 C69 1.32 69 2.64 69 4 C72.3 4 75.6 4 79 4 C79 5.65 79 7.3 79 9 C81.97 9 84.94 9 88 9 C88 10.65 88 12.3 88 14 C89.65 14 91.3 14 93 14 C93.33 15.65 93.66 17.3 94 19 C95.32 19 96.64 19 98 19 C98 20.65 98 22.3 98 24 C99.65 24 101.3 24 103 24 C103 25.65 103 27.3 103 29 C105.97 29 108.94 29 112 29 C112.33 32.3 112.66 35.6 113 39 C111.35 39 109.7 39 108 39 C108 40.65 108 42.3 108 44 C104.7 44 101.4 44 98 44 C98 45.65 98 47.3 98 49 C96.68 49 95.36 49 94 49 C94 50.65 94 52.3 94 54 C90.7 54 87.4 54 84 54 C84 55.32 84 56.64 84 58 C85.65 58 87.3 58 89 58 C89 60.97 89 63.94 89 67 C90.65 67.33 92.3 67.66 94 68 C94 69.65 94 71.3 94 73 C91.525 73.495 91.525 73.495 89 74 C89 74.99 89 75.98 89 77 C101.54 77 114.08 77 127 77 C127 90.2 127 103.4 127 117 C125.68 117 124.36 117 123 117 C123 120.3 123 123.6 123 127 C121.35 127 119.7 127 118 127 C118 123.7 118 120.4 118 117 C119.32 117 120.64 117 122 117 C122 105.78 122 94.56 122 83 C95.27 83.33 68.54 83.66 41 84 C39.535831 89.85667599 39.43011299 95.97841821 39 102 C56.82 102 74.64 102 93 102 C93 106.95 93 111.9 93 117 C91.35 117 89.7 117 88 117 C88 118.65 88 120.3 88 122 C86.68 122 85.36 122 84 122 C83.67 123.65 83.34 125.3 83 127 C81.68 127 80.36 127 79 127 C78.67 128.65 78.34 130.3 78 132 C76.68 132 75.36 132 74 132 C73.67 133.65 73.34 135.3 73 137 C71.68 137 70.36 137 69 137 C69 138.32 69 139.64 69 141 C67.35 141 65.7 141 64 141 C64 142.32 64 143.64 64 145 C60.7 145.33 57.4 145.66 54 146 C54 147.32 54 148.64 54 150 C41.15777605 151.68422609 27.84222395 151.68422609 15 150 C15 148.68 15 147.36 15 146 C12.03 146 9.06 146 6 146 C5.505 143.525 5.505 143.525 5 141 C3.35 141 1.7 141 0 141 C0 139.68 0 138.36 0 137 C-1.65 136.67 -3.3 136.34 -5 136 C-5 134.68 -5 133.36 -5 132 C-6.65 131.67 -8.3 131.34 -10 131 C-10 129.68 -10 128.36 -10 127 C-11.32 127 -12.64 127 -14 127 C-14.33 125.35 -14.66 123.7 -15 122 C-15.99 121.67 -16.98 121.34 -18 121 C-18 119.68 -18 118.36 -18 117 C-19.65 117 -21.3 117 -23 117 C-23 113.7 -23 110.4 -23 107 C-24.65 107 -26.3 107 -28 107 C-28.60749834 93.99533484 -29.18780376 81.02106078 -29 68 C-27.35 68 -25.7 68 -24 68 C-24 64.7 -24 61.4 -24 58 C-22.35 58 -20.7 58 -19 58 C-19 55.03 -19 52.06 -19 49 C-17.35 49 -15.7 49 -14 49 C-14 47.35 -14 45.7 -14 44 C-12.02 43.505 -12.02 43.505 -10 43 C-9.9175 42.38125 -9.835 41.7625 -9.75 41.125 C-9 39 -9 39 -7 37.9375 C-6.34 37.628125 -5.68 37.31875 -5 37 C-4.67 36.01 -4.34 35.02 -4 34 C-1.03 34 1.94 34 5 34 C5 32.35 5 30.7 5 29 C11.6 29 18.2 29 25 29 C25 27.35 25 25.7 25 24 C34.57 24 44.14 24 54 24 C54 25.65 54 27.3 54 29 C57.63 29 61.26 29 65 29 C64.67 30.65 64.34 32.3 64 34 C67.63 34 71.26 34 75 34 C74.67 35.65 74.34 37.3 74 39 C75.65 39 77.3 39 79 39 C79 40.65 79 42.3 79 44 C85.1105424 44.11269443 90.95170514 43.89604368 97 43 C97.33 41.68 97.66 40.36 98 39 C99.32 39 100.64 39 102 39 C102 35.7 102 32.4 102 29 C97.38 29 92.76 29 88 29 C88 26.03 88 23.06 88 20 C86.35 20 84.7 20 83 20 C83 18.35 83 16.7 83 15 C79.7 15 76.4 15 73 15 C73 13.35 73 11.7 73 10 C70.03 10 67.06 10 64 10 C64 8.35 64 6.7 64 5 C63.42142242 5.07105453 62.84284485 5.14210907 62.24673462 5.21531677 C55.36079171 5.99045556 48.57300935 6.13057107 41.6484375 6.09765625 C39.93837021 6.09553383 39.93837021 6.09553383 38.1937561 6.09336853 C34.58747627 6.08781479 30.98126076 6.07527107 27.375 6.0625 C24.91536549 6.05747902 22.45572999 6.05291716 19.99609375 6.04882812 C13.99737424 6.03786055 7.99869172 6.02116914 2 6 C1.731875 6.639375 1.46375 7.27875 1.1875 7.9375 C0 10 0 10 -3 11 C-3.226875 11.66 -3.45375 12.32 -3.6875 13 C-5 15 -5 15 -6.90234375 15.484375 C-8.92773766 15.72642559 -10.96442585 15.86867264 -13 16 C-13.33 17.32 -13.66 18.64 -14 20 C-16.97 20.33 -19.94 20.66 -23 21 C-23.33 22.32 -23.66 23.64 -24 25 C-24.99 25.33 -25.98 25.66 -27 26 C-27.33 26.66 -27.66 27.32 -28 28 C-28.33 28.66 -28.66 29.32 -29 30 C-29.99 30.33 -30.98 30.66 -32 31 C-32.33 31.99 -32.66 32.98 -33 34 C-34.98 34.495 -34.98 34.495 -37 35 C-37.33 37.97 -37.66 40.94 -38 44 C-39.98 44.495 -39.98 44.495 -42 45 C-42.33 46.32 -42.66 47.64 -43 49 C-43.9590625 49.1546875 -43.9590625 49.1546875 -44.9375 49.3125 C-45.9584375 49.6528125 -45.9584375 49.6528125 -47 50 C-47.33 50.99 -47.66 51.98 -48 53 C-47.01 53.33 -46.02 53.66 -45 54 C-45.99 54.495 -45.99 54.495 -47 55 C-47.46954261 58.04581269 -47.46954261 58.04581269 -47.625 61.5625 C-47.69976562 62.76003906 -47.77453125 63.95757812 -47.8515625 65.19140625 C-47.90054688 66.11824219 -47.94953125 67.04507813 -48 68 C-50.475 68.495 -50.475 68.495 -53 69 C-53 62.07 -53 55.14 -53 48 C-51.68 48 -50.36 48 -49 48 C-49 45.03 -49 42.06 -49 39 C-46.525 38.505 -46.525 38.505 -44 38 C-43.67 36.35 -43.34 34.7 -43 33 C-41.68 33 -40.36 33 -39 33 C-39 31.68 -39 30.36 -39 29 C-37.35 29 -35.7 29 -34 29 C-34 27.35 -34 25.7 -34 24 C-32.35 24 -30.7 24 -29 24 C-29 22.35 -29 20.7 -29 19 C-27.35 19 -25.7 19 -24 19 C-24 17.35 -24 15.7 -24 14 C-22.68 14 -21.36 14 -20 14 C-19.67 12.35 -19.34 10.7 -19 9 C-16.03 9 -13.06 9 -10 9 C-10 7.35 -10 5.7 -10 4 C-6.7 4 -3.4 4 0 4 C0 2.68 0 1.36 0 0 Z M69 40 C69 40.99 69 41.98 69 43 C70.32 43 71.64 43 73 43 C73 42.01 73 41.02 73 40 C71.68 40 70.36 40 69 40 Z M30 44 C30 45.32 30 46.64 30 48 C32.97 48 35.94 48 39 48 C39 46.68 39 45.36 39 44 C36.03 44 33.06 44 30 44 Z M74 44 C74 45.32 74 46.64 74 48 C75.32 48 76.64 48 78 48 C78 46.68 78 45.36 78 44 C76.68 44 75.36 44 74 44 Z M-13 49 C-13 50.32 -13 51.64 -13 53 C-12.01 53 -11.02 53 -10 53 C-10 51.68 -10 50.36 -10 49 C-10.99 49 -11.98 49 -13 49 Z M79 49 C79 50.32 79 51.64 79 53 C80.32 53 81.64 53 83 53 C83 51.68 83 50.36 83 49 C81.68 49 80.36 49 79 49 Z M-4 54 C-4 55.32 -4 56.64 -4 58 C-2.68 58 -1.36 58 0 58 C0 56.68 0 55.36 0 54 C-1.32 54 -2.64 54 -4 54 Z M69 54 C69 55.32 69 56.64 69 58 C70.32 58 71.64 58 73 58 C73 56.68 73 55.36 73 54 C71.68 54 70.36 54 69 54 Z M-18 59 C-18 60.32 -18 61.64 -18 63 C-17.01 63 -16.02 63 -15 63 C-15 61.68 -15 60.36 -15 59 C-15.99 59 -16.98 59 -18 59 Z M30 59 C30 64.94 30 70.88 30 77 C34.62 77 39.24 77 44 77 C44 76.01 44 75.02 44 74 C42.68 73.67 41.36 73.34 40 73 C39.67 68.38 39.34 63.76 39 59 C36.03 59 33.06 59 30 59 Z M11 64 C10.67 65.32 10.34 66.64 10 68 C8.68 68.33 7.36 68.66 6 69 C6 69.99 6 70.98 6 72 C8.64 72 11.28 72 14 72 C14 69.36 14 66.72 14 64 C13.01 64 12.02 64 11 64 Z M55 64 C54.67 66.97 54.34 69.94 54 73 C52.68 73.33 51.36 73.66 50 74 C50 74.99 50 75.98 50 77 C55.94 77 61.88 77 68 77 C68 76.01 68 75.02 68 74 C66.35 74 64.7 74 63 74 C63 70.7 63 67.4 63 64 C60.36 64 57.72 64 55 64 Z M-9 74 C-9 74.99 -9 75.98 -9 77 C-7.68 77 -6.36 77 -5 77 C-5 76.01 -5 75.02 -5 74 C-6.32 74 -7.64 74 -9 74 Z M74 74 C74 74.99 74 75.98 74 77 C75.32 77 76.64 77 78 77 C78 76.01 78 75.02 78 74 C76.68 74 75.36 74 74 74 Z M6 83 C6 87.62 6 92.24 6 97 C8.64 97 11.28 97 14 97 C14 92.38 14 87.76 14 83 C11.36 83 8.72 83 6 83 Z M26 83 C26 87.62 26 92.24 26 97 C26.99 97 27.98 97 29 97 C29 92.38 29 87.76 29 83 C28.01 83 27.02 83 26 83 Z M-13 88 C-13 89.32 -13 90.64 -13 92 C-10.36 92 -7.72 92 -5 92 C-5 90.68 -5 89.36 -5 88 C-7.64 88 -10.28 88 -13 88 Z M6 108 C6 110.64 6 113.28 6 116 C8.64 116 11.28 116 14 116 C14 113.36 14 110.72 14 108 C11.36 108 8.72 108 6 108 Z M30 108 C30 112.29 30 116.58 30 121 C32.97 121 35.94 121 39 121 C39 117.7 39 114.4 39 111 C40.65 111 42.3 111 44 111 C44 110.01 44 109.02 44 108 C39.38 108 34.76 108 30 108 Z M50 108 C50 108.99 50 109.98 50 111 C51.32 111.33 52.64 111.66 54 112 C54.33 113.32 54.66 114.64 55 116 C57.64 116 60.28 116 63 116 C63 114.35 63 112.7 63 111 C66.3 111 69.6 111 73 111 C73 110.01 73 109.02 73 108 C65.41 108 57.82 108 50 108 Z M16 117 C16 118.32 16 119.64 16 121 C16.99 121 17.98 121 19 121 C19 119.68 19 118.36 19 117 C18.01 117 17.02 117 16 117 Z M-4 122 C-4 123.32 -4 124.64 -4 126 C-2.68 126 -1.36 126 0 126 C0 124.68 0 123.36 0 122 C-1.32 122 -2.64 122 -4 122 Z M69 122 C69 123.32 69 124.64 69 126 C70.32 126 71.64 126 73 126 C73 124.68 73 123.36 73 122 C71.68 122 70.36 122 69 122 Z M30 132 C30 133.32 30 134.64 30 136 C32.97 136 35.94 136 39 136 C39 134.68 39 133.36 39 132 C36.03 132 33.06 132 30 132 Z " fill="#94A18F" transform="translate(53,0)"/>
<path d="M0 0 C0.88945313 0.00322266 1.77890625 0.00644531 2.6953125 0.00976562 C3.61570313 0.01814453 4.53609375 0.02652344 5.484375 0.03515625 C6.42023438 0.03966797 7.35609375 0.04417969 8.3203125 0.04882812 C10.62506541 0.06058707 12.92968727 0.07702199 15.234375 0.09765625 C15.234375 1.74765625 15.234375 3.39765625 15.234375 5.09765625 C13.584375 5.09765625 11.934375 5.09765625 10.234375 5.09765625 C10.234375 8.06765625 10.234375 11.03765625 10.234375 14.09765625 C11.884375 14.09765625 13.534375 14.09765625 15.234375 14.09765625 C15.234375 16.07765625 15.234375 18.05765625 15.234375 20.09765625 C13.584375 20.09765625 11.934375 20.09765625 10.234375 20.09765625 C10.234375 21.74765625 10.234375 23.39765625 10.234375 25.09765625 C8.914375 25.09765625 7.594375 25.09765625 6.234375 25.09765625 C5.739375 27.57265625 5.739375 27.57265625 5.234375 30.09765625 C3.914375 30.09765625 2.594375 30.09765625 1.234375 30.09765625 C1.234375 31.08765625 1.234375 32.07765625 1.234375 33.09765625 C3.1525 33.06671875 3.1525 33.06671875 5.109375 33.03515625 C10.19644517 33.0270687 15.1859897 33.50744836 20.234375 34.09765625 C21.69684526 45.43180075 21.69684526 56.76351175 20.234375 68.09765625 C13.86131902 68.84273169 7.65126175 69.20115442 1.234375 69.09765625 C1.24597656 69.68933594 1.25757812 70.28101562 1.26953125 70.890625 C1.31759886 75.0999741 1.29444383 78.98988955 0.234375 83.09765625 C-2.735625 83.09765625 -5.705625 83.09765625 -8.765625 83.09765625 C-8.765625 84.41765625 -8.765625 85.73765625 -8.765625 87.09765625 C-10.415625 87.09765625 -12.065625 87.09765625 -13.765625 87.09765625 C-14.095625 86.10765625 -14.425625 85.11765625 -14.765625 84.09765625 C-16.63949716 83.29552997 -16.63949716 83.29552997 -18.828125 82.91015625 C-19.92833984 82.67232422 -19.92833984 82.67232422 -21.05078125 82.4296875 C-21.61667969 82.32011719 -22.18257812 82.21054688 -22.765625 82.09765625 C-22.765625 80.77765625 -22.765625 79.45765625 -22.765625 78.09765625 C-24.415625 78.09765625 -26.065625 78.09765625 -27.765625 78.09765625 C-28.81364388 69.75509327 -28.91930703 61.48438457 -28.89599609 53.09155273 C-28.89059566 50.77255845 -28.89599103 48.45375435 -28.90234375 46.13476562 C-28.90168357 44.64713499 -28.90040366 43.15950448 -28.8984375 41.671875 C-28.90046173 40.98534348 -28.90248596 40.29881195 -28.90457153 39.59147644 C-28.88694847 35.96836025 -28.62061894 32.6216407 -27.765625 29.09765625 C-26.445625 29.09765625 -25.125625 29.09765625 -23.765625 29.09765625 C-23.765625 27.44765625 -23.765625 25.79765625 -23.765625 24.09765625 C-22.445625 24.09765625 -21.125625 24.09765625 -19.765625 24.09765625 C-19.435625 20.79765625 -19.105625 17.49765625 -18.765625 14.09765625 C-17.445625 14.09765625 -16.125625 14.09765625 -14.765625 14.09765625 C-14.435625 12.44765625 -14.105625 10.79765625 -13.765625 9.09765625 C-12.445625 9.09765625 -11.125625 9.09765625 -9.765625 9.09765625 C-9.435625 6.45765625 -9.105625 3.81765625 -8.765625 1.09765625 C-5.76855805 0.22802538 -3.11605974 -0.01997474 0 0 Z M-8.765625 15.09765625 C-8.765625 16.41765625 -8.765625 17.73765625 -8.765625 19.09765625 C-7.445625 19.09765625 -6.125625 19.09765625 -4.765625 19.09765625 C-4.765625 17.77765625 -4.765625 16.45765625 -4.765625 15.09765625 C-6.085625 15.09765625 -7.405625 15.09765625 -8.765625 15.09765625 Z M-13.765625 35.09765625 C-13.765625 36.08765625 -13.765625 37.07765625 -13.765625 38.09765625 C-12.445625 38.09765625 -11.125625 38.09765625 -9.765625 38.09765625 C-9.765625 37.10765625 -9.765625 36.11765625 -9.765625 35.09765625 C-11.085625 35.09765625 -12.405625 35.09765625 -13.765625 35.09765625 Z M1.234375 44.09765625 C1.234375 48.71765625 1.234375 53.33765625 1.234375 58.09765625 C3.874375 58.09765625 6.514375 58.09765625 9.234375 58.09765625 C9.234375 53.47765625 9.234375 48.85765625 9.234375 44.09765625 C6.594375 44.09765625 3.954375 44.09765625 1.234375 44.09765625 Z M-17.765625 49.09765625 C-17.765625 50.41765625 -17.765625 51.73765625 -17.765625 53.09765625 C-15.125625 53.09765625 -12.485625 53.09765625 -9.765625 53.09765625 C-9.765625 51.77765625 -9.765625 50.45765625 -9.765625 49.09765625 C-12.405625 49.09765625 -15.045625 49.09765625 -17.765625 49.09765625 Z " fill="#969F93" transform="translate(57.765625,38.90234375)"/>
<path d="M0 0 C22.77 0 45.54 0 69 0 C69 1.32 69 2.64 69 4 C72.3 4 75.6 4 79 4 C79 5.65 79 7.3 79 9 C81.97 9 84.94 9 88 9 C88 10.65 88 12.3 88 14 C89.65 14 91.3 14 93 14 C93.33 15.65 93.66 17.3 94 19 C95.32 19 96.64 19 98 19 C98 20.65 98 22.3 98 24 C99.65 24 101.3 24 103 24 C103 25.65 103 27.3 103 29 C105.97 29 108.94 29 112 29 C112.33 32.3 112.66 35.6 113 39 C111.35 39 109.7 39 108 39 C108 40.65 108 42.3 108 44 C104.7 44 101.4 44 98 44 C98 45.65 98 47.3 98 49 C96.68 49 95.36 49 94 49 C94 50.65 94 52.3 94 54 C90.37 54 86.74 54 83 54 C83 52.35 83 50.7 83 49 C81.35 49 79.7 49 78 49 C78 47.35 78 45.7 78 44 C76.35 44 74.7 44 73 44 C73 42.68 73 41.36 73 40 C69.7 39.67 66.4 39.34 63 39 C63 37.68 63 36.36 63 35 C60.03 34.67 57.06 34.34 54 34 C54 32.68 54 31.36 54 30 C44.43 29.67 34.86 29.34 25 29 C25 27.35 25 25.7 25 24 C34.57 24 44.14 24 54 24 C54 25.65 54 27.3 54 29 C57.63 29 61.26 29 65 29 C64.67 30.65 64.34 32.3 64 34 C67.63 34 71.26 34 75 34 C74.67 35.65 74.34 37.3 74 39 C75.65 39 77.3 39 79 39 C79 40.65 79 42.3 79 44 C85.1105424 44.11269443 90.95170514 43.89604368 97 43 C97.33 41.68 97.66 40.36 98 39 C99.32 39 100.64 39 102 39 C102 35.7 102 32.4 102 29 C97.38 29 92.76 29 88 29 C88 26.03 88 23.06 88 20 C86.35 20 84.7 20 83 20 C83 18.35 83 16.7 83 15 C79.7 15 76.4 15 73 15 C73 13.35 73 11.7 73 10 C70.03 10 67.06 10 64 10 C64 8.35 64 6.7 64 5 C63.42142242 5.07105453 62.84284485 5.14210907 62.24673462 5.21531677 C55.36079171 5.99045556 48.57300935 6.13057107 41.6484375 6.09765625 C39.93837021 6.09553383 39.93837021 6.09553383 38.1937561 6.09336853 C34.58747627 6.08781479 30.98126076 6.07527107 27.375 6.0625 C24.91536549 6.05747902 22.45572999 6.05291716 19.99609375 6.04882812 C13.99737424 6.03786055 7.99869172 6.02116914 2 6 C1.731875 6.639375 1.46375 7.27875 1.1875 7.9375 C0 10 0 10 -3 11 C-3.226875 11.66 -3.45375 12.32 -3.6875 13 C-5 15 -5 15 -6.90234375 15.484375 C-8.92773766 15.72642559 -10.96442585 15.86867264 -13 16 C-13.33 17.32 -13.66 18.64 -14 20 C-16.97 20.33 -19.94 20.66 -23 21 C-23.33 22.32 -23.66 23.64 -24 25 C-24.99 25.33 -25.98 25.66 -27 26 C-27.33 26.66 -27.66 27.32 -28 28 C-28.33 28.66 -28.66 29.32 -29 30 C-29.99 30.33 -30.98 30.66 -32 31 C-32.33 31.99 -32.66 32.98 -33 34 C-34.98 34.495 -34.98 34.495 -37 35 C-37.33 37.97 -37.66 40.94 -38 44 C-39.98 44.495 -39.98 44.495 -42 45 C-42.33 46.32 -42.66 47.64 -43 49 C-43.9590625 49.1546875 -43.9590625 49.1546875 -44.9375 49.3125 C-45.9584375 49.6528125 -45.9584375 49.6528125 -47 50 C-47.33 50.99 -47.66 51.98 -48 53 C-47.01 53.33 -46.02 53.66 -45 54 C-45.99 54.495 -45.99 54.495 -47 55 C-47.46954261 58.04581269 -47.46954261 58.04581269 -47.625 61.5625 C-47.69976562 62.76003906 -47.77453125 63.95757812 -47.8515625 65.19140625 C-47.90054688 66.11824219 -47.94953125 67.04507813 -48 68 C-50.475 68.495 -50.475 68.495 -53 69 C-53 62.07 -53 55.14 -53 48 C-51.68 48 -50.36 48 -49 48 C-49 45.03 -49 42.06 -49 39 C-46.525 38.505 -46.525 38.505 -44 38 C-43.67 36.35 -43.34 34.7 -43 33 C-41.68 33 -40.36 33 -39 33 C-39 31.68 -39 30.36 -39 29 C-37.35 29 -35.7 29 -34 29 C-34 27.35 -34 25.7 -34 24 C-32.35 24 -30.7 24 -29 24 C-29 22.35 -29 20.7 -29 19 C-27.35 19 -25.7 19 -24 19 C-24 17.35 -24 15.7 -24 14 C-22.68 14 -21.36 14 -20 14 C-19.67 12.35 -19.34 10.7 -19 9 C-16.03 9 -13.06 9 -10 9 C-10 7.35 -10 5.7 -10 4 C-6.7 4 -3.4 4 0 4 C0 2.68 0 1.36 0 0 Z " fill="#7ABE5C" transform="translate(53,0)"/>
<path d="M0 0 C1.65 0 3.3 0 5 0 C5.33 1.32 5.66 2.64 6 4 C8.475 4.495 8.475 4.495 11 5 C11 6.32 11 7.64 11 9 C13.64 9 16.28 9 19 9 C19 7.35 19 5.7 19 4 C22.3 4 25.6 4 29 4 C29 3.01 29 2.02 29 1 C33.15626368 -0.00926479 37.04365094 -0.10239579 41.3125 -0.0625 C42.56675781 -0.05347656 43.82101563 -0.04445313 45.11328125 -0.03515625 C46.06589844 -0.02355469 47.01851563 -0.01195313 48 0 C48 1.65 48 3.3 48 5 C46.68 5 45.36 5 44 5 C44 8.3 44 11.6 44 15 C42.68 15 41.36 15 40 15 C39.505 17.475 39.505 17.475 39 20 C37.68 20 36.36 20 35 20 C34.505 22.475 34.505 22.475 34 25 C32.68 25 31.36 25 30 25 C29.505 27.475 29.505 27.475 29 30 C27.68 30 26.36 30 25 30 C25 31.32 25 32.64 25 34 C23.35 34 21.7 34 20 34 C20 35.32 20 36.64 20 38 C15.31367437 39.19536461 10.77970671 39.12759836 5.98046875 39.09765625 C4.69261223 39.09553383 4.69261223 39.09553383 3.3787384 39.09336853 C0.64828951 39.08779057 -2.08207607 39.07524214 -4.8125 39.0625 C-6.6686186 39.05748215 -8.5247385 39.05291974 -10.38085938 39.04882812 C-14.9206048 39.03782836 -19.4602883 39.02057893 -24 39 C-24 35.7 -24 32.4 -24 29 C-22.68 29 -21.36 29 -20 29 C-20 27.68 -20 26.36 -20 25 C-21.32 25 -22.64 25 -24 25 C-23.67 23.35 -23.34 21.7 -23 20 C-22.01 19.67 -21.02 19.34 -20 19 C-19.67 17.35 -19.34 15.7 -19 14 C-14.38 14 -9.76 14 -5 14 C-5 10.7 -5 7.4 -5 4 C-3.35 4 -1.7 4 0 4 C0 2.68 0 1.36 0 0 Z M25 15 C25 16.32 25 17.64 25 19 C26.32 19 27.64 19 29 19 C29 17.68 29 16.36 29 15 C27.68 15 26.36 15 25 15 Z M-14 25 C-14 26.32 -14 27.64 -14 29 C-11.03 29 -8.06 29 -5 29 C-5 27.68 -5 26.36 -5 25 C-7.97 25 -10.94 25 -14 25 Z " fill="#94A090" transform="translate(97,107)"/>
<path d="M0 0 C0.85667267 0.00359528 1.71334534 0.00719055 2.59597778 0.01089478 C3.4934523 0.01074875 4.39092682 0.01060272 5.31559753 0.01045227 C8.29702123 0.01115175 11.27838329 0.01894575 14.25979614 0.02676392 C16.32102932 0.02862797 18.38226293 0.03005193 20.4434967 0.03105164 C25.88017999 0.03487779 31.31683675 0.04470891 36.75350952 0.05575562 C42.29661704 0.06596764 47.83972882 0.07054881 53.38284302 0.07559204 C64.2676222 0.08633109 75.15237469 0.10392867 86.03713989 0.12442017 C86.03713989 13.32442017 86.03713989 26.52442017 86.03713989 40.12442017 C84.71713989 40.12442017 83.39713989 40.12442017 82.03713989 40.12442017 C82.03713989 43.42442017 82.03713989 46.72442017 82.03713989 50.12442017 C80.38713989 50.12442017 78.73713989 50.12442017 77.03713989 50.12442017 C77.03713989 46.82442017 77.03713989 43.52442017 77.03713989 40.12442017 C78.35713989 40.12442017 79.67713989 40.12442017 81.03713989 40.12442017 C81.03713989 28.90442017 81.03713989 17.68442017 81.03713989 6.12442017 C54.30713989 6.45442017 27.57713989 6.78442017 0.03713989 7.12442017 C-1.4270291 12.98109615 -1.53274712 19.10283838 -1.96286011 25.12442017 C15.85713989 25.12442017 33.67713989 25.12442017 52.03713989 25.12442017 C52.03713989 30.07442017 52.03713989 35.02442017 52.03713989 40.12442017 C50.38713989 40.12442017 48.73713989 40.12442017 47.03713989 40.12442017 C47.03713989 38.47442017 47.03713989 36.82442017 47.03713989 35.12442017 C48.35713989 35.12442017 49.67713989 35.12442017 51.03713989 35.12442017 C51.03713989 33.47442017 51.03713989 31.82442017 51.03713989 30.12442017 C50.31510376 30.19588257 49.59306763 30.26734497 48.84915161 30.3409729 C36.62821275 31.38976431 24.41794993 31.2348156 12.16213989 31.18692017 C9.91344297 31.18189424 7.66474497 31.17733327 5.41604614 31.17324829 C-0.04361661 31.16233133 -5.50322607 31.14512715 -10.96286011 31.12442017 C-10.96286011 27.49442017 -10.96286011 23.86442017 -10.96286011 20.12442017 C-9.64286011 20.12442017 -8.32286011 20.12442017 -6.96286011 20.12442017 C-6.96809692 19.55409058 -6.97333374 18.98376099 -6.97872925 18.39614868 C-6.99944232 15.82641693 -7.01250201 13.2567027 -7.02536011 10.68692017 C-7.03373901 9.78908813 -7.04211792 8.8912561 -7.05075073 7.96621704 C-7.05397339 7.11221313 -7.05719604 6.25820923 -7.06051636 5.37832642 C-7.06575317 4.58756714 -7.07098999 3.79680786 -7.0763855 2.98208618 C-6.81946499 -1.2220173 -3.42875202 0.00607804 0 0 Z " fill="#71A06F" transform="translate(93.96286010742188,76.87557983398438)"/>
<path d="M0 0 C5.3710904 -0.02491229 10.74214639 -0.0429596 16.11328125 -0.05493164 C17.93652941 -0.05992817 19.75977362 -0.06672764 21.58300781 -0.07543945 C24.219411 -0.08771187 26.85576074 -0.09327525 29.4921875 -0.09765625 C30.29365204 -0.10281754 31.09511658 -0.10797882 31.92086792 -0.11329651 C37.66561269 -0.11385276 43.29495059 0.33716508 49 1 C49 2.32 49 3.64 49 5 C51.97 5.33 54.94 5.66 58 6 C58 7.32 58 8.64 58 10 C53.38 10 48.76 10 44 10 C44 11.65 44 13.3 44 15 C45.98 15 47.96 15 50 15 C49.67 17.97 49.34 20.94 49 24 C47.68 24 46.36 24 45 24 C44.505 22.515 44.505 22.515 44 21 C42.68 21 41.36 21 40 21 C39.505 22.485 39.505 22.485 39 24 C37.35 24.33 35.7 24.66 34 25 C34 20.05 34 15.1 34 10 C19.81 10.33 5.62 10.66 -9 11 C-9.33 13.64 -9.66 16.28 -10 19 C-13.96 19.495 -13.96 19.495 -18 20 C-18.33 23.3 -18.66 26.6 -19 30 C-20.32 30 -21.64 30 -23 30 C-23.33 32.97 -23.66 35.94 -24 39 C-25.32 39 -26.64 39 -28 39 C-28.33 51.87 -28.66 64.74 -29 78 C-30.32 78 -31.64 78 -33 78 C-33.60749834 64.99533484 -34.18780376 52.02106078 -34 39 C-32.35 39 -30.7 39 -29 39 C-29 35.7 -29 32.4 -29 29 C-27.35 29 -25.7 29 -24 29 C-24 26.03 -24 23.06 -24 20 C-22.35 20 -20.7 20 -19 20 C-19 18.35 -19 16.7 -19 15 C-17.68 14.67 -16.36 14.34 -15 14 C-14.9175 13.38125 -14.835 12.7625 -14.75 12.125 C-14 10 -14 10 -12 8.9375 C-11.34 8.628125 -10.68 8.31875 -10 8 C-9.67 7.01 -9.34 6.02 -9 5 C-6.03 5 -3.06 5 0 5 C0 3.35 0 1.7 0 0 Z " fill="#95A192" transform="translate(58,29)"/>
<path d="M0 0 C1.25425781 0.00902344 2.50851563 0.01804687 3.80078125 0.02734375 C4.75339844 0.03894531 5.70601563 0.05054687 6.6875 0.0625 C6.6875 1.7125 6.6875 3.3625 6.6875 5.0625 C5.3675 5.0625 4.0475 5.0625 2.6875 5.0625 C2.6875 8.3625 2.6875 11.6625 2.6875 15.0625 C1.3675 15.0625 0.0475 15.0625 -1.3125 15.0625 C-1.8075 17.5375 -1.8075 17.5375 -2.3125 20.0625 C-3.6325 20.0625 -4.9525 20.0625 -6.3125 20.0625 C-6.8075 22.5375 -6.8075 22.5375 -7.3125 25.0625 C-8.6325 25.0625 -9.9525 25.0625 -11.3125 25.0625 C-11.8075 27.5375 -11.8075 27.5375 -12.3125 30.0625 C-13.6325 30.0625 -14.9525 30.0625 -16.3125 30.0625 C-16.3125 31.3825 -16.3125 32.7025 -16.3125 34.0625 C-17.9625 34.0625 -19.6125 34.0625 -21.3125 34.0625 C-21.3125 35.3825 -21.3125 36.7025 -21.3125 38.0625 C-25.99882563 39.25786461 -30.53279329 39.19009836 -35.33203125 39.16015625 C-36.61988777 39.15803383 -36.61988777 39.15803383 -37.9337616 39.15586853 C-40.66421049 39.15029057 -43.39457607 39.13774214 -46.125 39.125 C-47.9811186 39.11998215 -49.8372385 39.11541974 -51.69335938 39.11132812 C-56.2331048 39.10032836 -60.7727883 39.08307893 -65.3125 39.0625 C-65.3125 37.4125 -65.3125 35.7625 -65.3125 34.0625 C-55.7425 34.0625 -46.1725 34.0625 -36.3125 34.0625 C-36.3125 32.4125 -36.3125 30.7625 -36.3125 29.0625 C-31.3625 29.0625 -26.4125 29.0625 -21.3125 29.0625 C-21.3125 27.4125 -21.3125 25.7625 -21.3125 24.0625 C-19.9925 24.0625 -18.6725 24.0625 -17.3125 24.0625 C-17.3125 22.7425 -17.3125 21.4225 -17.3125 20.0625 C-20.2825 20.0625 -23.2525 20.0625 -26.3125 20.0625 C-26.3125 16.4325 -26.3125 12.8025 -26.3125 9.0625 C-24.9925 9.0625 -23.6725 9.0625 -22.3125 9.0625 C-22.3125 7.4125 -22.3125 5.7625 -22.3125 4.0625 C-19.0125 4.0625 -15.7125 4.0625 -12.3125 4.0625 C-12.3125 3.0725 -12.3125 2.0825 -12.3125 1.0625 C-8.15623632 0.05323521 -4.26884906 -0.03989579 0 0 Z M-16.3125 15.0625 C-16.3125 16.3825 -16.3125 17.7025 -16.3125 19.0625 C-14.9925 19.0625 -13.6725 19.0625 -12.3125 19.0625 C-12.3125 17.7425 -12.3125 16.4225 -12.3125 15.0625 C-13.6325 15.0625 -14.9525 15.0625 -16.3125 15.0625 Z " fill="#98A492" transform="translate(138.3125,106.9375)"/>
<path d="M0 0 C1.65 0 3.3 0 5 0 C5.495 0.99 5.495 0.99 6 2 C5.25 4.0625 5.25 4.0625 4 6 C3.01 6.33 2.02 6.66 1 7 C0.67 7.99 0.34 8.98 0 10 C-0.99 10.33 -1.98 10.66 -3 11 C-3.73323796 13.01508358 -3.73323796 13.01508358 -4 15 C-5.32 15.33 -6.64 15.66 -8 16 C-8.33 17.32 -8.66 18.64 -9 20 C-10.32 20.33 -11.64 20.66 -13 21 C-13.33 22.32 -13.66 23.64 -14 25 C-14.62648438 25.02578125 -15.25296875 25.0515625 -15.8984375 25.078125 C-16.71570313 25.13484375 -17.53296875 25.1915625 -18.375 25.25 C-19.18710938 25.29640625 -19.99921875 25.3428125 -20.8359375 25.390625 C-21.55007812 25.59171875 -22.26421875 25.7928125 -23 26 C-23.66 27.32 -24.32 28.64 -25 30 C-40.84 30 -56.68 30 -73 30 C-73 28.35 -73 26.7 -73 25 C-74.65 25 -76.3 25 -78 25 C-78 23.35 -78 21.7 -78 20 C-80.97 20 -83.94 20 -87 20 C-87 18.35 -87 16.7 -87 15 C-88.65 15 -90.3 15 -92 15 C-92 13.35 -92 11.7 -92 10 C-90.35 10 -88.7 10 -87 10 C-87 11.32 -87 12.64 -87 14 C-84.03 14.33 -81.06 14.66 -78 15 C-77.67 16.32 -77.34 17.64 -77 19 C-74.03 19.33 -71.06 19.66 -68 20 C-68 21.32 -68 22.64 -68 24 C-55.13 24 -42.26 24 -29 24 C-29 22.68 -29 21.36 -29 20 C-25.7 19.67 -22.4 19.34 -19 19 C-19 17.68 -19 16.36 -19 15 C-14.545 14.505 -14.545 14.505 -10 14 C-10 12.68 -10 11.36 -10 10 C-8.35 10 -6.7 10 -5 10 C-5 8.35 -5 6.7 -5 5 C-3.35 5 -1.7 5 0 5 C0 3.35 0 1.7 0 0 Z " fill="#416450" transform="translate(136,126)"/>
<path d="M0 0 C6.6 0 13.2 0 20 0 C20 0.33 20 0.66 20 1 C16.7 1 13.4 1 10 1 C10 2.32 10 3.64 10 5 C5.545 5.495 5.545 5.495 1 6 C1 7.32 1 8.64 1 10 C-2.3 10.33 -5.6 10.66 -9 11 C-9.33 13.64 -9.66 16.28 -10 19 C-13.96 19.495 -13.96 19.495 -18 20 C-18.33 23.3 -18.66 26.6 -19 30 C-20.32 30 -21.64 30 -23 30 C-23.33 32.97 -23.66 35.94 -24 39 C-25.32 39 -26.64 39 -28 39 C-28.33 51.87 -28.66 64.74 -29 78 C-30.32 78 -31.64 78 -33 78 C-33.60749834 64.99533484 -34.18780376 52.02106078 -34 39 C-32.35 39 -30.7 39 -29 39 C-29 35.7 -29 32.4 -29 29 C-27.35 29 -25.7 29 -24 29 C-24 26.03 -24 23.06 -24 20 C-22.35 20 -20.7 20 -19 20 C-19 18.35 -19 16.7 -19 15 C-17.68 14.67 -16.36 14.34 -15 14 C-14.9175 13.38125 -14.835 12.7625 -14.75 12.125 C-14 10 -14 10 -12 8.9375 C-11.34 8.628125 -10.68 8.31875 -10 8 C-9.67 7.01 -9.34 6.02 -9 5 C-6.03 5 -3.06 5 0 5 C0 3.35 0 1.7 0 0 Z " fill="#7CC15D" transform="translate(58,29)"/>
<path d="M0 0 C0.80991898 0.00359528 1.61983795 0.00719055 2.45429993 0.01089478 C3.30300659 0.01074875 4.15171326 0.01060272 5.02613831 0.01045227 C7.84523532 0.01115168 10.66426712 0.01894539 13.48335266 0.02676392 C15.43248458 0.028628 17.38161696 0.03005195 19.33074951 0.03105164 C24.47151473 0.03487761 29.61225188 0.04470858 34.75300598 0.05575562 C39.99449789 0.06596802 45.23599431 0.07054889 50.47749329 0.07559204 C60.76982335 0.08633078 71.06213255 0.10340815 81.35444641 0.12442017 C81.35444641 1.77442017 81.35444641 3.42442017 81.35444641 5.12442017 C52.31444641 5.45442017 23.27444641 5.78442017 -6.64555359 6.12442017 C-6.64555359 -0.73101926 -6.23561668 0.01168777 0 0 Z " fill="#73AF67" transform="translate(93.64555358886719,76.87557983398438)"/>
<path d="M0 0 C9.57 0 19.14 0 29 0 C29 1.65 29 3.3 29 5 C32.63 5 36.26 5 40 5 C39.67 6.65 39.34 8.3 39 10 C42.63 10 46.26 10 50 10 C49.67 11.65 49.34 13.3 49 15 C50.65 15 52.3 15 54 15 C54 16.65 54 18.3 54 20 C58.62 20 63.24 20 68 20 C68 21.65 68 23.3 68 25 C63.05 25 58.1 25 53 25 C53 23.35 53 21.7 53 20 C51.35 20 49.7 20 48 20 C48 18.68 48 17.36 48 16 C44.7 15.67 41.4 15.34 38 15 C38 13.68 38 12.36 38 11 C35.03 10.67 32.06 10.34 29 10 C29 8.68 29 7.36 29 6 C19.43 5.67 9.86 5.34 0 5 C0 3.35 0 1.7 0 0 Z " fill="#7EBE61" transform="translate(78,24)"/>
<path d="M0 0 C3.3 0 6.6 0 10 0 C10 1.65 10 3.3 10 5 C8.35 5 6.7 5 5 5 C5 6.65 5 8.3 5 10 C-9.52 10 -24.04 10 -39 10 C-39 8.35 -39 6.7 -39 5 C-26.13 5 -13.26 5 0 5 C0 3.35 0 1.7 0 0 Z " fill="#304747" transform="translate(112,170)"/>
<path d="M0 0 C1.65 0 3.3 0 5 0 C5 1.65 5 3.3 5 5 C7.97 5 10.94 5 14 5 C14.33 8.3 14.66 11.6 15 15 C13.35 15 11.7 15 10 15 C10 16.65 10 18.3 10 20 C6.7 20 3.4 20 0 20 C0 21.65 0 23.3 0 25 C-1.32 25 -2.64 25 -4 25 C-4 26.65 -4 28.3 -4 30 C-7.63 30 -11.26 30 -15 30 C-15 28.35 -15 26.7 -15 25 C-11.7 25 -8.4 25 -5 25 C-5 23.35 -5 21.7 -5 20 C-3.68 19.67 -2.36 19.34 -1 19 C-0.67 17.68 -0.34 16.36 0 15 C1.32 15 2.64 15 4 15 C4 11.7 4 8.4 4 5 C2.68 5 1.36 5 0 5 C0 3.35 0 1.7 0 0 Z " fill="#86C569" transform="translate(151,24)"/>
<path d="M0 0 C1.65 0 3.3 0 5 0 C5 13.2 5 26.4 5 40 C3.68 40 2.36 40 1 40 C1 43.3 1 46.6 1 50 C-0.65 50 -2.3 50 -4 50 C-4 46.7 -4 43.4 -4 40 C-2.68 40 -1.36 40 0 40 C0 26.8 0 13.6 0 0 Z " fill="#78A873" transform="translate(175,77)"/>
<path d="M0 0 C1.65 0 3.3 0 5 0 C5 4.62 5 9.24 5 14 C6.65 14 8.3 14 10 14 C10 18.95 10 23.9 10 29 C11.65 29 13.3 29 15 29 C15 30.65 15 32.3 15 34 C11.7 34 8.4 34 5 34 C5 30.7 5 27.4 5 24 C3.35 24 1.7 24 0 24 C0 16.08 0 8.16 0 0 Z " fill="#9DA29B" transform="translate(29,78)"/>
<path d="M0 0 C1.65 0 3.3 0 5 0 C5 1.65 5 3.3 5 5 C8.3 5 11.6 5 15 5 C15 6.32 15 7.64 15 9 C17.97 9 20.94 9 24 9 C24.33 10.65 24.66 12.3 25 14 C31.27 14 37.54 14 44 14 C44 15.65 44 17.3 44 19 C37.4 19 30.8 19 24 19 C24 17.68 24 16.36 24 15 C20.7 15 17.4 15 14 15 C14 13.35 14 11.7 14 10 C11.03 10 8.06 10 5 10 C4.67 8.35 4.34 6.7 4 5 C2.68 5 1.36 5 0 5 C0 3.35 0 1.7 0 0 Z " fill="#485C5C" transform="translate(29,161)"/>
<path d="M0 0 C1.65 0 3.3 0 5 0 C5 3.3 5 6.6 5 10 C3.68 10 2.36 10 1 10 C1.00523682 10.58491211 1.01047363 11.16982422 1.01586914 11.77246094 C1.03670158 14.43162963 1.04968007 17.09078111 1.0625 19.75 C1.07087891 20.67039062 1.07925781 21.59078125 1.08789062 22.5390625 C1.09111328 23.42851562 1.09433594 24.31796875 1.09765625 25.234375 C1.10289307 26.05131836 1.10812988 26.86826172 1.11352539 27.70996094 C1.00299021 29.93968135 0.62055567 31.86133755 0 34 C-1.32 34 -2.64 34 -4 34 C-4 35.65 -4 37.3 -4 39 C-6.475 39.495 -6.475 39.495 -9 40 C-9 41.32 -9 42.64 -9 44 C-10.65 44 -12.3 44 -14 44 C-14 42.35 -14 40.7 -14 39 C-12.35 39 -10.7 39 -9 39 C-9 35.7 -9 32.4 -9 29 C-7.68 29 -6.36 29 -5 29 C-5 27.35 -5 25.7 -5 24 C-6.32 24 -7.64 24 -9 24 C-9 22.35 -9 20.7 -9 19 C-6.03 19 -3.06 19 0 19 C0 12.73 0 6.46 0 0 Z " fill="#517E54" transform="translate(170,107)"/>
<path d="M0 0 C1.65 0 3.3 0 5 0 C5 1.32 5 2.64 5 4 C7.97 4.33 10.94 4.66 14 5 C14.33 6.32 14.66 7.64 15 9 C17.97 9.33 20.94 9.66 24 10 C24 11.32 24 12.64 24 14 C33.57 14.33 43.14 14.66 53 15 C53 16.32 53 17.64 53 19 C45.08 19 37.16 19 29 19 C29 17.68 29 16.36 29 15 C24.05 15 19.1 15 14 15 C14 13.35 14 11.7 14 10 C11.03 10 8.06 10 5 10 C5 8.35 5 6.7 5 5 C3.35 5 1.7 5 0 5 C0 3.35 0 1.7 0 0 Z " fill="#4E6E5C" transform="translate(44,136)"/>
<path d="M0 0 C3.3 0 6.6 0 10 0 C10 1.65 10 3.3 10 5 C8.35 5 6.7 5 5 5 C5 6.65 5 8.3 5 10 C-6.22 10 -17.44 10 -29 10 C-29 8.35 -29 6.7 -29 5 C-19.43 5 -9.86 5 0 5 C0 3.35 0 1.7 0 0 Z " fill="#A0A59C" transform="translate(102,136)"/>
<path d="M0 0 C1.65 0 3.3 0 5 0 C4.67 6.6 4.34 13.2 4 20 C2.68 20 1.36 20 0 20 C0 27.92 0 35.84 0 44 C-1.65 44 -3.3 44 -5 44 C-5 36.08 -5 28.16 -5 20 C-3.68 20 -2.36 20 -1 20 C-1.01160156 19.05898437 -1.02320312 18.11796875 -1.03515625 17.1484375 C-1.04869141 15.28058594 -1.04869141 15.28058594 -1.0625 13.375 C-1.07410156 12.14523438 -1.08570312 10.91546875 -1.09765625 9.6484375 C-1.00863924 6.32276209 -0.63686087 3.25952412 0 0 Z " fill="#8BA084" transform="translate(83,77)"/>
<path d="M0 0 C6.6 0 13.2 0 20 0 C20 1.32 20 2.64 20 4 C22.475 4.495 22.475 4.495 25 5 C25 6.32 25 7.64 25 9 C27.475 9.495 27.475 9.495 30 10 C30 11.32 30 12.64 30 14 C26.7 14.33 23.4 14.66 20 15 C19.67 13.35 19.34 11.7 19 10 C17.68 10 16.36 10 15 10 C15 8.35 15 6.7 15 5 C10.05 5 5.1 5 0 5 C0 3.35 0 1.7 0 0 Z " fill="#989C97" transform="translate(102,39)"/>
<path d="M0 0 C3.3 0 6.6 0 10 0 C10 1.65 10 3.3 10 5 C8.081875 5.12375 8.081875 5.12375 6.125 5.25 C3.95365445 5.30367785 3.95365445 5.30367785 2 6 C1.34 7.32 0.68 8.64 0 10 C-2.97 10 -5.94 10 -9 10 C-9 11.32 -9 12.64 -9 14 C-12.3 14 -15.6 14 -19 14 C-19 15.65 -19 17.3 -19 19 C-20.65 19 -22.3 19 -24 19 C-24 17.35 -24 15.7 -24 14 C-22.68 14 -21.36 14 -20 14 C-19.67 12.35 -19.34 10.7 -19 9 C-16.03 9 -13.06 9 -10 9 C-10 7.35 -10 5.7 -10 4 C-6.7 4 -3.4 4 0 4 C0 2.68 0 1.36 0 0 Z " fill="#83C266" transform="translate(53,0)"/>
<path d="M0 0 C1.65 0 3.3 0 5 0 C5 1.65 5 3.3 5 5 C3.68 5 2.36 5 1 5 C1 6.65 1 8.3 1 10 C-0.65 10 -2.3 10 -4 10 C-4.33 11.65 -4.66 13.3 -5 15 C-7.97 15 -10.94 15 -14 15 C-14 16.65 -14 18.3 -14 20 C-17.3 20 -20.6 20 -24 20 C-24 21.32 -24 22.64 -24 24 C-25.65 24 -27.3 24 -29 24 C-29 22.35 -29 20.7 -29 19 C-27.35 19 -25.7 19 -24 19 C-24 17.35 -24 15.7 -24 14 C-20.7 14 -17.4 14 -14 14 C-14 12.68 -14 11.36 -14 10 C-11.03 10 -8.06 10 -5 10 C-5 8.35 -5 6.7 -5 5 C-3.35 5 -1.7 5 0 5 C0 3.35 0 1.7 0 0 Z " fill="#4B605E" transform="translate(146,156)"/>
<path d="M0 0 C1.65 0 3.3 0 5 0 C5 1.32 5 2.64 5 4 C9.95 4 14.9 4 20 4 C20.33 5.65 20.66 7.3 21 9 C22.32 9 23.64 9 25 9 C25 12.3 25 15.6 25 19 C21.7 19 18.4 19 15 19 C15 16.03 15 13.06 15 10 C13.35 10 11.7 10 10 10 C10 8.35 10 6.7 10 5 C6.7 5 3.4 5 0 5 C0 3.35 0 1.7 0 0 Z " fill="#7ABE5C" transform="translate(126,10)"/>
<path d="M0 0 C0.81027649 -0.00014603 1.62055298 -0.00029205 2.4553833 -0.0004425 C5.12287104 0.00025192 7.79028819 0.00802227 10.45776367 0.01586914 C12.31149762 0.01773499 14.16523206 0.01915811 16.01896667 0.02015686 C20.8900591 0.02396888 25.76112154 0.03378793 30.63220215 0.04486084 C35.60595291 0.05510324 40.57970852 0.05966054 45.5534668 0.06469727 C55.30673515 0.07541139 65.05998129 0.09247201 74.81323242 0.11352539 C74.81323242 0.44352539 74.81323242 0.77352539 74.81323242 1.11352539 C48.08323242 1.44352539 21.35323242 1.77352539 -6.18676758 2.11352539 C-7.14863689 5.96100262 -7.49335785 9.41520391 -7.74926758 13.36352539 C-7.83305664 14.62680664 -7.9168457 15.89008789 -8.00317383 17.19165039 C-8.06375977 18.15586914 -8.1243457 19.12008789 -8.18676758 20.11352539 C-9.83676758 20.11352539 -11.48676758 20.11352539 -13.18676758 20.11352539 C-13.18676758 13.84352539 -13.18676758 7.57352539 -13.18676758 1.11352539 C-8.65911126 0.20799413 -4.57252023 -0.0216841 0 0 Z " fill="#63A357" transform="translate(100.186767578125,81.886474609375)"/>
<path d="M0 0 C3.3 0 6.6 0 10 0 C10 1.32 10 2.64 10 4 C13.3 4 16.6 4 20 4 C20 5.65 20 7.3 20 9 C22.97 9 25.94 9 29 9 C29 10.65 29 12.3 29 14 C25.7 14 22.4 14 19 14 C19 12.68 19 11.36 19 10 C14.38 10 9.76 10 5 10 C5 8.35 5 6.7 5 5 C3.35 5 1.7 5 0 5 C0 3.35 0 1.7 0 0 Z " fill="#7BBD5C" transform="translate(112,0)"/>
<path d="M0 0 C1.32 0 2.64 0 4 0 C4 1.98 4 3.96 4 6 C2.35 6 0.7 6 -1 6 C-1 8.97 -1 11.94 -1 15 C-2.32 15 -3.64 15 -5 15 C-5 16.65 -5 18.3 -5 20 C-4.01 20.33 -3.02 20.66 -2 21 C-2.66 21.33 -3.32 21.66 -4 22 C-4.46954261 25.04581269 -4.46954261 25.04581269 -4.625 28.5625 C-4.69976563 29.76003906 -4.77453125 30.95757812 -4.8515625 32.19140625 C-4.90054687 33.11824219 -4.94953125 34.04507813 -5 35 C-7.475 35.495 -7.475 35.495 -10 36 C-10 29.07 -10 22.14 -10 15 C-8.68 15 -7.36 15 -6 15 C-6 12.03 -6 9.06 -6 6 C-4.35 5.67 -2.7 5.34 -1 5 C-0.67 3.35 -0.34 1.7 0 0 Z " fill="#87C46C" transform="translate(10,33)"/>
<path d="M0 0 C12.87 0 25.74 0 39 0 C39 1.32 39 2.64 39 4 C26.15777605 5.68422609 12.84222395 5.68422609 0 4 C0 2.68 0 1.36 0 0 Z " fill="#819483" transform="translate(68,146)"/>
<path d="M0 0 C1.65 0 3.3 0 5 0 C5 12.87 5 25.74 5 39 C3.68 39 2.36 39 1 39 C0.39250166 25.99533484 -0.18780376 13.02106078 0 0 Z " fill="#7AB565" transform="translate(24,68)"/>
<path d="M0 0 C0 1.32 0 2.64 0 4 C-12.87 4 -25.74 4 -39 4 C-39 2.68 -39 1.36 -39 0 C-26.15777605 -1.68422609 -12.84222395 -1.68422609 0 0 Z " fill="#90A588" transform="translate(107,30)"/>
<path d="M0 0 C3.3 0 6.6 0 10 0 C10 1.32 10 2.64 10 4 C17.92 4 25.84 4 34 4 C34 2.68 34 1.36 34 0 C39.28 0 44.56 0 50 0 C49.34 1.65 48.68 3.3 48 5 C32.16 5 16.32 5 0 5 C0 3.35 0 1.7 0 0 Z " fill="#2F4B43" transform="translate(63,151)"/>
<path d="M0 0 C2.31 0 4.62 0 7 0 C6.67 1.65 6.34 3.3 6 5 C7.65 5 9.3 5 11 5 C11 6.65 11 8.3 11 10 C15.62 10 20.24 10 25 10 C25 11.65 25 13.3 25 15 C20.05 15 15.1 15 10 15 C10 13.35 10 11.7 10 10 C8.35 10 6.7 10 5 10 C5 8.68 5 7.36 5 6 C3.35 5.67 1.7 5.34 0 5 C0 3.35 0 1.7 0 0 Z " fill="#76C254" transform="translate(121,34)"/>
<path d="M0 0 C1.65 0 3.3 0 5 0 C5 3.3 5 6.6 5 10 C6.32 10 7.64 10 9 10 C9 12.97 9 15.94 9 19 C10.65 19 12.3 19 14 19 C14 20.98 14 22.96 14 25 C12.35 25 10.7 25 9 25 C9 23.35 9 21.7 9 20 C7.35 19.67 5.7 19.34 4 19 C4 16.03 4 13.06 4 10 C2.68 10 1.36 10 0 10 C0 6.7 0 3.4 0 0 Z " fill="#638964" transform="translate(0,122)"/>
<path d="M0 0 C3.3 0 6.6 0 10 0 C10 1.65 10 3.3 10 5 C8.35 5 6.7 5 5 5 C5 6.65 5 8.3 5 10 C0.05 10 -4.9 10 -10 10 C-10 8.35 -10 6.7 -10 5 C-6.7 5 -3.4 5 0 5 C0 3.35 0 1.7 0 0 Z " fill="#455959" transform="translate(112,170)"/>
<path d="M0 0 C2.97 0 5.94 0 9 0 C7.68 0.33 6.36 0.66 5 1 C5 7.27 5 13.54 5 20 C3.35 20.33 1.7 20.66 0 21 C0 22.32 0 23.64 0 25 C-1.65 25 -3.3 25 -5 25 C-5 23.35 -5 21.7 -5 20 C-3.35 20 -1.7 20 0 20 C0 16.7 0 13.4 0 10 C1.32 10 2.64 10 4 10 C4 8.35 4 6.7 4 5 C2.68 5 1.36 5 0 5 C0 3.35 0 1.7 0 0 Z " fill="#476456" transform="translate(161,126)"/>
<path d="M0 0 C1.65 0.33 3.3 0.66 5 1 C5 3.97 5 6.94 5 10 C3.35 10 1.7 10 0 10 C0 11.65 0 13.3 0 15 C-1.65 15 -3.3 15 -5 15 C-5 11.7 -5 8.4 -5 5 C-3.35 5 -1.7 5 0 5 C0 3.35 0 1.7 0 0 Z " fill="#2A4441" transform="translate(156,136)"/>
<path d="M0 0 C1.65 0 3.3 0 5 0 C5 1.32 5 2.64 5 4 C6.32 4.33 7.64 4.66 9 5 C9.33 7.97 9.66 10.94 10 14 C11.32 14 12.64 14 14 14 C14 15.65 14 17.3 14 19 C12.35 19 10.7 19 9 19 C9 17.35 9 15.7 9 14 C7.35 14 5.7 14 4 14 C4 10.7 4 7.4 4 4 C2.68 4 1.36 4 0 4 C0 2.68 0 1.36 0 0 Z " fill="#4B7854" transform="translate(30,117)"/>
<path d="M0 0 C7.92 0 15.84 0 24 0 C24 1.32 24 2.64 24 4 C16.08 4 8.16 4 0 4 C0 2.68 0 1.36 0 0 Z " fill="#49615E" transform="translate(73,151)"/>
<path d="M0 0 C6.6 0 13.2 0 20 0 C20 1.65 20 3.3 20 5 C13.73 5 7.46 5 1 5 C0.67 3.35 0.34 1.7 0 0 Z " fill="#1B3335" transform="translate(53,170)"/>
<path d="M0 0 C1.65 0 3.3 0 5 0 C4.67 6.6 4.34 13.2 4 20 C2.35 20 0.7 20 -1 20 C-1.02722517 17.79173622 -1.04649729 15.58337362 -1.0625 13.375 C-1.07410156 12.14523438 -1.08570312 10.91546875 -1.09765625 9.6484375 C-1.00863924 6.32276209 -0.63686087 3.25952412 0 0 Z " fill="#86B87D" transform="translate(83,77)"/>
<path d="M0 0 C1.65 0 3.3 0 5 0 C5 1.32 5 2.64 5 4 C6.65 4 8.3 4 10 4 C10 4.33 10 4.66 10 5 C8.35 5 6.7 5 5 5 C5 6.65 5 8.3 5 10 C2.03 10 -0.94 10 -4 10 C-4 11.32 -4 12.64 -4 14 C-5.98 14 -7.96 14 -10 14 C-9.125 10.125 -9.125 10.125 -8 9 C-5.32941149 8.85884839 -2.67567762 8.95752893 0 9 C0 6.03 0 3.06 0 0 Z " fill="#354A4B" transform="translate(136,156)"/>
<path d="M0 0 C1.32 0 2.64 0 4 0 C4 1.65 4 3.3 4 5 C2.68 5 1.36 5 0 5 C0 6.65 0 8.3 0 10 C-6.6 10 -13.2 10 -20 10 C-20 9.67 -20 9.34 -20 9 C-16.7 9 -13.4 9 -10 9 C-10 7.68 -10 6.36 -10 5 C-6.7 4.67 -3.4 4.34 0 4 C0 2.68 0 1.36 0 0 Z " fill="#475D5A" transform="translate(117,141)"/>
<path d="M0 0 C1.65 0 3.3 0 5 0 C5 1.65 5 3.3 5 5 C3.68 5 2.36 5 1 5 C0.67 7.97 0.34 10.94 0 14 C-1.32 14 -2.64 14 -4 14 C-4 15.65 -4 17.3 -4 19 C-4.33 19 -4.66 19 -5 19 C-5 14.05 -5 9.1 -5 4 C-3.35 4 -1.7 4 0 4 C0 2.68 0 1.36 0 0 Z " fill="#78BF59" transform="translate(34,54)"/>
<path d="M0 0 C0 1.32 0 2.64 0 4 C-1.65 4 -3.3 4 -5 4 C-5 5.65 -5 7.3 -5 9 C-6.65 9 -8.3 9 -10 9 C-9.67 6.36 -9.34 3.72 -9 1 C-5.92677456 0.08941469 -3.19902639 -0.08886184 0 0 Z M-14 9 C-12.68 9 -11.36 9 -10 9 C-10 10.65 -10 12.3 -10 14 C-11.65 14 -13.3 14 -15 14 C-14.67 12.35 -14.34 10.7 -14 9 Z " fill="#91998E" transform="translate(58,39)"/>
<path d="M0 0 C3.3 0 6.6 0 10 0 C10 1.65 10 3.3 10 5 C11.65 5 13.3 5 15 5 C15 6.65 15 8.3 15 10 C11.7 10 8.4 10 5 10 C5 7.03 5 4.06 5 1 C3.35 1 1.7 1 0 1 C0 0.67 0 0.34 0 0 Z " fill="#6EB94B" transform="translate(136,19)"/>
<path d="M0 0 C1.65 0 3.3 0 5 0 C5 1.65 5 3.3 5 5 C3.68 5 2.36 5 1 5 C1 6.65 1 8.3 1 10 C-0.65 10 -2.3 10 -4 10 C-4.33 11.65 -4.66 13.3 -5 15 C-6.32 15 -7.64 15 -9 15 C-9 13.35 -9 11.7 -9 10 C-7.68 10 -6.36 10 -5 10 C-5 8.35 -5 6.7 -5 5 C-3.35 5 -1.7 5 0 5 C0 3.35 0 1.7 0 0 Z " fill="#576C68" transform="translate(146,156)"/>
<path d="M0 0 C0.33 0 0.66 0 1 0 C1 12.87 1 25.74 1 39 C-0.65 39 -2.3 39 -4 39 C-4 35.7 -4 32.4 -4 29 C-2.68 29 -1.36 29 0 29 C0 19.43 0 9.86 0 0 Z " fill="#6A9069" transform="translate(175,88)"/>
<path d="M0 0 C1.65 0 3.3 0 5 0 C4.67 2.97 4.34 5.94 4 9 C2.68 9 1.36 9 0 9 C0 10.65 0 12.3 0 14 C-1.32 14 -2.64 14 -4 14 C-4 11.03 -4 8.06 -4 5 C-3.01 4.67 -2.02 4.34 -1 4 C-0.26676204 1.98491642 -0.26676204 1.98491642 0 0 Z " fill="#8CA384" transform="translate(102,127)"/>
<path d="M0 0 C1.32 0 2.64 0 4 0 C4 6.27 4 12.54 4 19 C2.68 19 1.36 19 0 19 C0 12.73 0 6.46 0 0 Z " fill="#71A964" transform="translate(25,88)"/>
<path d="M0 0 C4.95 0 9.9 0 15 0 C14.67 1.65 14.34 3.3 14 5 C9.38 5.33 4.76 5.66 0 6 C0 4.02 0 2.04 0 0 Z " fill="#80C163" transform="translate(63,0)"/>
<path d="M0 0 C2.475 0.495 2.475 0.495 5 1 C5 2.32 5 3.64 5 5 C6.32 5 7.64 5 9 5 C9 6.65 9 8.3 9 10 C6.03 10 3.06 10 0 10 C0 6.7 0 3.4 0 0 Z " fill="#899F83" transform="translate(103,111)"/>
<path d="M0 0 C0.99 0.33 1.98 0.66 3 1 C3 2.32 3 3.64 3 5 C4.65 5 6.3 5 8 5 C7.360625 5.268125 6.72125 5.53625 6.0625 5.8125 C3.66868314 6.88667752 3.66868314 6.88667752 3 10 C4.65 10 6.3 10 8 10 C8 10.33 8 10.66 8 11 C4.7 11 1.4 11 -2 11 C-2 9.35 -2 7.7 -2 6 C-3.65 6 -5.3 6 -7 6 C-7 5.67 -7 5.34 -7 5 C-5.35 5 -3.7 5 -2 5 C-2 3.68 -2 2.36 -2 1 C-1.34 0.67 -0.68 0.34 0 0 Z " fill="#27423B" transform="translate(36,155)"/>
<path d="M0 0 C1.98 0 3.96 0 6 0 C5.34 1.65 4.68 3.3 4 5 C1.36 5.33 -1.28 5.66 -4 6 C-4.33 7.32 -4.66 8.64 -5 10 C-8.3 10.33 -11.6 10.66 -15 11 C-15 10.34 -15 9.68 -15 9 C-13.35 9 -11.7 9 -10 9 C-10 7.35 -10 5.7 -10 4 C-6.7 4 -3.4 4 0 4 C0 2.68 0 1.36 0 0 Z " fill="#71B751" transform="translate(44,10)"/>
<path d="M0 0 C1.65 0 3.3 0 5 0 C5 4.95 5 9.9 5 15 C3.68 15 2.36 15 1 15 C0.67 10.05 0.34 5.1 0 0 Z " fill="#8CA485" transform="translate(29,102)"/>
<path d="M0 0 C2.00720923 0.28674418 4.0085944 0.61866701 6 1 C5.67 2.65 5.34 4.3 5 6 C3.68 6.33 2.36 6.66 1 7 C0.67 8.32 0.34 9.64 0 11 C-1.65 11 -3.3 11 -5 11 C-5 9.35 -5 7.7 -5 6 C-3.68 6 -2.36 6 -1 6 C-1.020625 5.195625 -1.04125 4.39125 -1.0625 3.5625 C-1 1 -1 1 0 0 Z " fill="#38544E" transform="translate(122,140)"/>
<path d="M0 0 C1.32 0 2.64 0 4 0 C4 4.62 4 9.24 4 14 C2.35 14 0.7 14 -1 14 C-0.67 9.38 -0.34 4.76 0 0 Z " fill="#55954D" transform="translate(88,88)"/>
<path d="M0 0 C2.97 0 5.94 0 9 0 C9 1.32 9 2.64 9 4 C7.68 4 6.36 4 5 4 C5 5.65 5 7.3 5 9 C3.35 9 1.7 9 0 9 C0 6.03 0 3.06 0 0 Z " fill="#8CA583" transform="translate(68,44)"/>
<path d="M0 0 C2.31 0 4.62 0 7 0 C6.67 1.32 6.34 2.64 6 4 C7.32 4 8.64 4 10 4 C10 5.98 10 7.96 10 10 C8.35 10 6.7 10 5 10 C5 8.35 5 6.7 5 5 C3.35 5 1.7 5 0 5 C0 3.35 0 1.7 0 0 Z " fill="#456354" transform="translate(19,151)"/>
<path d="M0 0 C1.32 0.33 2.64 0.66 4 1 C3.01 1.495 3.01 1.495 2 2 C1.53045739 5.04581269 1.53045739 5.04581269 1.375 8.5625 C1.26285156 10.35880859 1.26285156 10.35880859 1.1484375 12.19140625 C1.09945313 13.11824219 1.05046875 14.04507813 1 15 C-0.65 15.33 -2.3 15.66 -4 16 C-4 12.37 -4 8.74 -4 5 C-2.68 5 -1.36 5 0 5 C0 3.35 0 1.7 0 0 Z " fill="#75BC55" transform="translate(4,53)"/>
<path d="M0 0 C0.33 0 0.66 0 1 0 C1 7.92 1 15.84 1 24 C2.65 24 4.3 24 6 24 C6 27.3 6 30.6 6 34 C5.67 34 5.34 34 5 34 C5 32.35 5 30.7 5 29 C3.35 29 1.7 29 0 29 C0 19.43 0 9.86 0 0 Z " fill="#57964F" transform="translate(24,83)"/>
<path d="M0 0 C1.98 0 3.96 0 6 0 C6 1.65 6 3.3 6 5 C4.68 5 3.36 5 2 5 C2 6.32 2 7.64 2 9 C0.02 9 -1.96 9 -4 9 C-3.67 7.35 -3.34 5.7 -3 4 C-2.01 4 -1.02 4 0 4 C0 2.68 0 1.36 0 0 Z " fill="#8AA481" transform="translate(67,112)"/>
<path d="M0 0 C1.65 0 3.3 0 5 0 C5 1.65 5 3.3 5 5 C6.65 5 8.3 5 10 5 C10 6.65 10 8.3 10 10 C8.35 10 6.7 10 5 10 C4.67 8.35 4.34 6.7 4 5 C2.68 5 1.36 5 0 5 C0 3.35 0 1.7 0 0 Z " fill="#5C6F6E" transform="translate(29,161)"/>
<path d="M0 0 C1.65 0 3.3 0 5 0 C5 1.65 5 3.3 5 5 C3.35 5.33 1.7 5.66 0 6 C0 7.32 0 8.64 0 10 C-1.65 10 -3.3 10 -5 10 C-5 8.35 -5 6.7 -5 5 C-3.35 5 -1.7 5 0 5 C0 3.35 0 1.7 0 0 Z " fill="#71897C" transform="translate(161,141)"/>
<path d="M0 0 C1.65 0 3.3 0 5 0 C5.33 1.65 5.66 3.3 6 5 C7.32 5 8.64 5 10 5 C10 6.65 10 8.3 10 10 C8.35 10 6.7 10 5 10 C5 8.35 5 6.7 5 5 C3.35 5 1.7 5 0 5 C0 3.35 0 1.7 0 0 Z " fill="#90CC74" transform="translate(141,14)"/>
<path d="M0 0 C1.65 0 3.3 0 5 0 C5 1.65 5 3.3 5 5 C3.35 5 1.7 5 0 5 C0 6.65 0 8.3 0 10 C-1.65 10 -3.3 10 -5 10 C-5 8.35 -5 6.7 -5 5 C-3.68 5 -2.36 5 -1 5 C-0.67 3.35 -0.34 1.7 0 0 Z " fill="#93C37E" transform="translate(34,9)"/>
<path d="M0 0 C1.32 0 2.64 0 4 0 C4 1.98 4 3.96 4 6 C2.35 6 0.7 6 -1 6 C-1 7.32 -1 8.64 -1 10 C-2.65 10 -4.3 10 -6 10 C-5.67 8.35 -5.34 6.7 -5 5 C-3.68 5 -2.36 5 -1 5 C-0.67 3.35 -0.34 1.7 0 0 Z " fill="#90C878" transform="translate(10,33)"/>
<path d="M0 0 C2.475 0.495 2.475 0.495 5 1 C5 2.32 5 3.64 5 5 C6.65 5 8.3 5 10 5 C10 6.65 10 8.3 10 10 C8.35 10 6.7 10 5 10 C4.67 8.35 4.34 6.7 4 5 C2.68 5 1.36 5 0 5 C0 3.35 0 1.7 0 0 Z " fill="#92A58B" transform="translate(132,53)"/>
<path d="M0 0 C3.3 0 6.6 0 10 0 C10 1.65 10 3.3 10 5 C6.7 5 3.4 5 0 5 C0 3.35 0 1.7 0 0 Z " fill="#2D4344" transform="translate(112,170)"/>
<path d="M0 0 C3.63 0 7.26 0 11 0 C10.34 1.65 9.68 3.3 9 5 C6.03 5 3.06 5 0 5 C0 3.35 0 1.7 0 0 Z " fill="#2C4542" transform="translate(102,151)"/>
<path d="M0 0 C1.65 0 3.3 0 5 0 C5 3.3 5 6.6 5 10 C3.35 10 1.7 10 0 10 C0 6.7 0 3.4 0 0 Z " fill="#508253" transform="translate(146,102)"/>
<path d="M0 0 C1.65 0 3.3 0 5 0 C5 3.3 5 6.6 5 10 C3.35 10 1.7 10 0 10 C0 6.7 0 3.4 0 0 Z " fill="#438A3C" transform="translate(0,102)"/>
<path d="M0 0 C3.3 0 6.6 0 10 0 C10 1.65 10 3.3 10 5 C6.7 5 3.4 5 0 5 C0 3.35 0 1.7 0 0 Z " fill="#8BC571" transform="translate(151,39)"/>
<path d="M0 0 C3.3 0 6.6 0 10 0 C10 1.65 10 3.3 10 5 C6.7 5 3.4 5 0 5 C0 3.35 0 1.7 0 0 Z " fill="#9D9D9D" transform="translate(102,39)"/>
<path d="M0 0 C2.475 0.495 2.475 0.495 5 1 C5 3.97 5 6.94 5 10 C3.35 10 1.7 10 0 10 C0 6.7 0 3.4 0 0 Z " fill="#38524B" transform="translate(156,136)"/>
<path d="M0 0 C3.3 0 6.6 0 10 0 C10 1.65 10 3.3 10 5 C7.03 5 4.06 5 1 5 C0.67 3.35 0.34 1.7 0 0 Z " fill="#8F9F8C" transform="translate(58,141)"/>
<path d="M0 0 C3.3 0 6.6 0 10 0 C10 1.65 10 3.3 10 5 C6.7 5 3.4 5 0 5 C0 3.35 0 1.7 0 0 Z " fill="#6BB849" transform="translate(136,44)"/>
<path d="M0 0 C9.57 0 19.14 0 29 0 C29 1.65 29 3.3 29 5 C27.35 5 25.7 5 24 5 C24 3.68 24 2.36 24 1 C16.08 1 8.16 1 0 1 C0 0.67 0 0.34 0 0 Z " fill="#71BD4E" transform="translate(78,24)"/>
<path d="M0 0 C0.66 0.33 1.32 0.66 2 1 C1.67 3.97 1.34 6.94 1 10 C-0.32 10.33 -1.64 10.66 -3 11 C-3.33 12.32 -3.66 13.64 -4 15 C-5.65 15.33 -7.3 15.66 -9 16 C-9 15.34 -9 14.68 -9 14 C-7.68 14 -6.36 14 -5 14 C-5 11.03 -5 8.06 -5 5 C-3.35 5 -1.7 5 0 5 C0 3.35 0 1.7 0 0 Z " fill="#72BA51" transform="translate(14,34)"/>
<path d="M0 0 C3.3 0 6.6 0 10 0 C10 1.65 10 3.3 10 5 C7.03 5 4.06 5 1 5 C0.67 3.35 0.34 1.7 0 0 Z " fill="#2C4344" transform="translate(53,170)"/>
<path d="M0 0 C3.3 0 6.6 0 10 0 C10 1.32 10 2.64 10 4 C6.7 4.33 3.4 4.66 0 5 C0 3.35 0 1.7 0 0 Z " fill="#899B8A" transform="translate(107,141)"/>
<path d="M0 0 C2.97 0 5.94 0 9 0 C9 1.65 9 3.3 9 5 C6.03 5 3.06 5 0 5 C0 3.35 0 1.7 0 0 Z " fill="#8CA384" transform="translate(83,136)"/>
<path d="M0 0 C1.32 0 2.64 0 4 0 C5.28571429 7.42857143 5.28571429 7.42857143 4 11 C2.68 11 1.36 11 0 11 C0 7.37 0 3.74 0 0 Z " fill="#7FA778" transform="translate(83,97)"/>
<path d="M0 0 C1.32 0 2.64 0 4 0 C4.33 3.3 4.66 6.6 5 10 C3.35 10 1.7 10 0 10 C0 6.7 0 3.4 0 0 Z " fill="#9ED088" transform="translate(161,29)"/>
<path d="M0 0 C2.97 0 5.94 0 9 0 C9 1.65 9 3.3 9 5 C6.03 5 3.06 5 0 5 C0 3.35 0 1.7 0 0 Z " fill="#89C170" transform="translate(132,9)"/>
<path d="M0 0 C3.3 0 6.6 0 10 0 C10 1.32 10 2.64 10 4 C6.7 4.33 3.4 4.66 0 5 C0 3.35 0 1.7 0 0 Z " fill="#92CA77" transform="translate(112,0)"/>
<path d="M0 0 C3.3 0 6.6 0 10 0 C10 1.65 10 3.3 10 5 C6.7 4.67 3.4 4.34 0 4 C0 2.68 0 1.36 0 0 Z " fill="#8FC776" transform="translate(53,0)"/>
<path d="M0 0 C1.65 0 3.3 0 5 0 C5 1.65 5 3.3 5 5 C-2.92 5 -10.84 5 -19 5 C-19 4.67 -19 4.34 -19 4 C-12.73 4 -6.46 4 0 4 C0 2.68 0 1.36 0 0 Z " fill="#354D4B" transform="translate(97,151)"/>
<path d="M0 0 C1.65 0 3.3 0 5 0 C5 1.32 5 2.64 5 4 C6.32 4.33 7.64 4.66 9 5 C9 6.32 9 7.64 9 9 C7.35 9 5.7 9 4 9 C4 7.35 4 5.7 4 4 C2.68 4 1.36 4 0 4 C0 2.68 0 1.36 0 0 Z " fill="#60905E" transform="translate(30,117)"/>
<path d="M0 0 C1.32 0 2.64 0 4 0 C4 2.97 4 5.94 4 9 C2.35 9.33 0.7 9.66 -1 10 C-0.67 6.7 -0.34 3.4 0 0 Z " fill="#90AA85" transform="translate(30,68)"/>
<path d="M0 0 C-0.33 1.32 -0.66 2.64 -1 4 C-4.3 3.67 -7.6 3.34 -11 3 C-11 2.01 -11 1.02 -11 0 C-6.98195309 -0.84098656 -3.98196457 -1.05404945 0 0 Z " fill="#8AA582" transform="translate(142,74)"/>
<path d="M0 0 C1.65 0 3.3 0 5 0 C4.67 2.97 4.34 5.94 4 9 C2.68 9 1.36 9 0 9 C0 6.03 0 3.06 0 0 Z " fill="#6D837A" transform="translate(166,132)"/>
<path d="M0 0 C3.3 0 6.6 0 10 0 C10 1.32 10 2.64 10 4 C6.7 4 3.4 4 0 4 C0 2.68 0 1.36 0 0 Z " fill="#4B5F5F" transform="translate(63,176)"/>
<path d="M0 0 C3.3 0 6.6 0 10 0 C10 1.32 10 2.64 10 4 C6.7 4 3.4 4 0 4 C0 2.68 0 1.36 0 0 Z " fill="#556966" transform="translate(53,176)"/>
<path d="M0 0 C1.65 0 3.3 0 5 0 C5 2.97 5 5.94 5 9 C3.68 9 2.36 9 1 9 C0.67 6.03 0.34 3.06 0 0 Z " fill="#8EA884" transform="translate(53,122)"/>
<path d="M0 0 C1.32 0 2.64 0 4 0 C4 2.97 4 5.94 4 9 C2.35 9 0.7 9 -1 9 C-0.67 6.03 -0.34 3.06 0 0 Z " fill="#8AA580" transform="translate(68,59)"/>
<path d="M0 0 C1.32 0 2.64 0 4 0 C4 2.97 4 5.94 4 9 C2.35 9 0.7 9 -1 9 C-0.67 6.03 -0.34 3.06 0 0 Z " fill="#8DA485" transform="translate(54,49)"/>
<path d="M0 0 C0.33 0 0.66 0 1 0 C1 4.95 1 9.9 1 15 C-0.65 15 -2.3 15 -4 15 C-4 13.35 -4 11.7 -4 10 C-2.68 10 -1.36 10 0 10 C0 6.7 0 3.4 0 0 Z " fill="#52735C" transform="translate(170,117)"/>
<path d="M0 0 C1.65 0 3.3 0 5 0 C5 1.65 5 3.3 5 5 C3.68 5 2.36 5 1 5 C1 8.3 1 11.6 1 15 C0.67 15 0.34 15 0 15 C0 10.05 0 5.1 0 0 Z " fill="#69B44D" transform="translate(24,68)"/>
<path d="M0 0 C2.31 0 4.62 0 7 0 C6.34 1.98 5.68 3.96 5 6 C3.35 5.67 1.7 5.34 0 5 C0 3.35 0 1.7 0 0 Z " fill="#71C14B" transform="translate(121,34)"/>
<path d="M0 0 C3.3 0 6.6 0 10 0 C10 0.99 10 1.98 10 3 C6.7 3.33 3.4 3.66 0 4 C0 2.68 0 1.36 0 0 Z " fill="#8CB47A" transform="translate(68,30)"/>
<path d="M0 0 C1.65 0 3.3 0 5 0 C5 1.32 5 2.64 5 4 C7.97 4 10.94 4 14 4 C14 4.33 14 4.66 14 5 C9.38 5 4.76 5 0 5 C0 3.35 0 1.7 0 0 Z " fill="#475A5B" transform="translate(39,166)"/>
<path d="M0 0 C0 1.32 0 2.64 0 4 C-2.97 4 -5.94 4 -9 4 C-9 3.01 -9 2.02 -9 1 C-5.92677456 0.08941469 -3.19902639 -0.08886184 0 0 Z " fill="#92AE86" transform="translate(58,39)"/>
<path d="M0 0 C2.97 0 5.94 0 9 0 C9 1.32 9 2.64 9 4 C6.03 3.67 3.06 3.34 0 3 C0 2.01 0 1.02 0 0 Z " fill="#8FB380" transform="translate(98,30)"/>
<path d="M0 0 C1.65 0 3.3 0 5 0 C5 1.32 5 2.64 5 4 C6.65 4 8.3 4 10 4 C10 4.33 10 4.66 10 5 C6.7 5 3.4 5 0 5 C0 3.35 0 1.7 0 0 Z " fill="#364D4B" transform="translate(34,161)"/>
<path d="M0 0 C0.33 0 0.66 0 1 0 C1 1.65 1 3.3 1 5 C2.32 5 3.64 5 5 5 C5 6.65 5 8.3 5 10 C3.35 10 1.7 10 0 10 C0 6.7 0 3.4 0 0 Z " fill="#516F5D" transform="translate(14,141)"/>
<path d="M0 0 C1.65 0 3.3 0 5 0 C5 1.98 5 3.96 5 6 C3.35 6 1.7 6 0 6 C0 4.02 0 2.04 0 0 Z " fill="#698D6F" transform="translate(9,141)"/>
<path d="M0 0 C0.33 0 0.66 0 1 0 C1 3.3 1 6.6 1 10 C-0.65 10 -2.3 10 -4 10 C-4 8.35 -4 6.7 -4 5 C-2.68 5 -1.36 5 0 5 C0 3.35 0 1.7 0 0 Z " fill="#72956E" transform="translate(145,107)"/>
<path d="M0 0 C4.62 0 9.24 0 14 0 C14 1.65 14 3.3 14 5 C12.68 5 11.36 5 10 5 C10 3.68 10 2.36 10 1 C6.7 1 3.4 1 0 1 C0 0.67 0 0.34 0 0 Z " fill="#88A684" transform="translate(131,107)"/>
<path d="M0 0 C1.65 0 3.3 0 5 0 C5 1.65 5 3.3 5 5 C3.68 5 2.36 5 1 5 C1 6.65 1 8.3 1 10 C0.67 10 0.34 10 0 10 C0 6.7 0 3.4 0 0 Z " fill="#83BC69" transform="translate(4,43)"/>
<path d="M0 0 C1.98 0 3.96 0 6 0 C5.67 1.65 5.34 3.3 5 5 C3.35 5 1.7 5 0 5 C0 3.35 0 1.7 0 0 Z " fill="#6FBB4D" transform="translate(34,49)"/>
<path d="M0 0 C2.97 0 5.94 0 9 0 C9 1.65 9 3.3 9 5 C7.35 5 5.7 5 4 5 C4 3.68 4 2.36 4 1 C2.68 0.67 1.36 0.34 0 0 Z " fill="#8AC36F" transform="translate(112,34)"/>
<path d="M0 0 C2.97 0 5.94 0 9 0 C7.68 0.33 6.36 0.66 5 1 C5 2.32 5 3.64 5 5 C3.35 5 1.7 5 0 5 C0 3.35 0 1.7 0 0 Z " fill="#86C56B" transform="translate(54,34)"/>
<path d="M0 0 C1.65 0 3.3 0 5 0 C5 1.65 5 3.3 5 5 C3.02 5 1.04 5 -1 5 C-0.67 3.35 -0.34 1.7 0 0 Z " fill="#71C04F" transform="translate(49,34)"/>
<path d="M0 0 C1.65 0 3.3 0 5 0 C5 1.65 5 3.3 5 5 C3.02 5 1.04 5 -1 5 C-0.67 3.35 -0.34 1.7 0 0 Z " fill="#506564" transform="translate(132,166)"/>
<path d="M0 0 C1.98 0 3.96 0 6 0 C5.67 1.65 5.34 3.3 5 5 C3.35 5 1.7 5 0 5 C0 3.35 0 1.7 0 0 Z " fill="#2F4B43" transform="translate(117,146)"/>
<path d="M0 0 C1.98 0 3.96 0 6 0 C5.67 1.65 5.34 3.3 5 5 C3.35 5 1.7 5 0 5 C0 3.35 0 1.7 0 0 Z " fill="#3B6645" transform="translate(10,136)"/>
<path d="M0 0 C1.65 0 3.3 0 5 0 C5 1.65 5 3.3 5 5 C3.35 5.33 1.7 5.66 0 6 C0 4.02 0 2.04 0 0 Z " fill="#386C3C" transform="translate(165,107)"/>
<path d="M0 0 C1.65 0 3.3 0 5 0 C5 1.65 5 3.3 5 5 C3.35 5.33 1.7 5.66 0 6 C0 4.02 0 2.04 0 0 Z " fill="#68B347" transform="translate(0,63)"/>
<path d="M0 0 C0 1.98 0 3.96 0 6 C-1.65 6 -3.3 6 -5 6 C-5 4.35 -5 2.7 -5 1 C-1.125 0 -1.125 0 0 0 Z " fill="#89BE72" transform="translate(151,43)"/>
<path d="M0 0 C1.98 0 3.96 0 6 0 C5.67 1.65 5.34 3.3 5 5 C3.35 5 1.7 5 0 5 C0 3.35 0 1.7 0 0 Z " fill="#77C453" transform="translate(112,29)"/>
<path d="M0 0 C1.65 0 3.3 0 5 0 C5.33 1.65 5.66 3.3 6 5 C4.02 5 2.04 5 0 5 C0 3.35 0 1.7 0 0 Z " fill="#72B853" transform="translate(126,10)"/>
<path d="M0 0 C1.65 0 3.3 0 5 0 C5 1.65 5 3.3 5 5 C3.35 5 1.7 5 0 5 C0 3.35 0 1.7 0 0 Z " fill="#3C5251" transform="translate(97,175)"/>
<path d="M0 0 C1.65 0 3.3 0 5 0 C5 1.65 5 3.3 5 5 C3.35 5 1.7 5 0 5 C0 3.35 0 1.7 0 0 Z " fill="#3B524F" transform="translate(73,175)"/>
<path d="M0 0 C1.65 0 3.3 0 5 0 C5 1.65 5 3.3 5 5 C3.35 5 1.7 5 0 5 C0 3.35 0 1.7 0 0 Z " fill="#667876" transform="translate(127,171)"/>
<path d="M0 0 C1.65 0 3.3 0 5 0 C5 1.65 5 3.3 5 5 C3.35 5 1.7 5 0 5 C0 3.35 0 1.7 0 0 Z " fill="#697979" transform="translate(43,171)"/>
<path d="M0 0 C1.65 0 3.3 0 5 0 C5 1.65 5 3.3 5 5 C3.35 5 1.7 5 0 5 C0 3.35 0 1.7 0 0 Z " fill="#5A6C6D" transform="translate(151,151)"/>
<path d="M0 0 C1.65 0 3.3 0 5 0 C5 1.65 5 3.3 5 5 C3.35 5 1.7 5 0 5 C0 3.35 0 1.7 0 0 Z " fill="#546E63" transform="translate(19,151)"/>
<path d="M0 0 C1.65 0 3.3 0 5 0 C5 1.65 5 3.3 5 5 C3.35 5 1.7 5 0 5 C0 3.35 0 1.7 0 0 Z " fill="#5E6F6F" transform="translate(156,146)"/>
<path d="M0 0 C1.65 0 3.3 0 5 0 C5 1.65 5 3.3 5 5 C3.35 5 1.7 5 0 5 C0 3.35 0 1.7 0 0 Z " fill="#406051" transform="translate(58,146)"/>
<path d="M0 0 C1.32 0 2.64 0 4 0 C4 1.65 4 3.3 4 5 C1.03 5 -1.94 5 -5 5 C-5 4.67 -5 4.34 -5 4 C-3.35 4 -1.7 4 0 4 C0 2.68 0 1.36 0 0 Z " fill="#698172" transform="translate(117,141)"/>
<path d="M0 0 C1.65 0 3.3 0 5 0 C5 1.65 5 3.3 5 5 C3.35 5 1.7 5 0 5 C0 3.35 0 1.7 0 0 Z " fill="#2D553C" transform="translate(44,141)"/>
<path d="M0 0 C1.65 0 3.3 0 5 0 C5 1.65 5 3.3 5 5 C3.35 5 1.7 5 0 5 C0 3.35 0 1.7 0 0 Z " fill="#8EA287" transform="translate(73,136)"/>
<path d="M0 0 C1.65 0 3.3 0 5 0 C5 1.65 5 3.3 5 5 C3.35 5 1.7 5 0 5 C0 3.35 0 1.7 0 0 Z " fill="#496859" transform="translate(131,131)"/>
<path d="M0 0 C1.65 0 3.3 0 5 0 C5 1.65 5 3.3 5 5 C3.35 5 1.7 5 0 5 C0 3.35 0 1.7 0 0 Z " fill="#75937D" transform="translate(171,122)"/>
<path d="M0 0 C1.65 0 3.3 0 5 0 C5 1.65 5 3.3 5 5 C3.35 5 1.7 5 0 5 C0 3.35 0 1.7 0 0 Z " fill="#9C9E9D" transform="translate(112,122)"/>
<path d="M0 0 C1.65 0 3.3 0 5 0 C5 1.65 5 3.3 5 5 C3.35 5 1.7 5 0 5 C0 3.35 0 1.7 0 0 Z " fill="#548953" transform="translate(0,117)"/>
<path d="M0 0 C1.65 0 3.3 0 5 0 C5 1.65 5 3.3 5 5 C3.35 5 1.7 5 0 5 C0 3.35 0 1.7 0 0 Z " fill="#8CA285" transform="translate(54,92)"/>
<path d="M0 0 C1.65 0 3.3 0 5 0 C5 1.65 5 3.3 5 5 C3.35 5 1.7 5 0 5 C0 3.35 0 1.7 0 0 Z " fill="#88B279" transform="translate(175,77)"/>
<path d="M0 0 C1.65 0 3.3 0 5 0 C5 1.65 5 3.3 5 5 C3.35 5 1.7 5 0 5 C0 3.35 0 1.7 0 0 Z " fill="#8A9F82" transform="translate(137,58)"/>
<path d="M0 0 C1.65 0 3.3 0 5 0 C5 1.65 5 3.3 5 5 C3.35 5 1.7 5 0 5 C0 3.35 0 1.7 0 0 Z " fill="#81CC5F" transform="translate(136,49)"/>
<path d="M0 0 C1.65 0 3.3 0 5 0 C5 1.65 5 3.3 5 5 C3.35 5 1.7 5 0 5 C0 3.35 0 1.7 0 0 Z " fill="#7DBF5F" transform="translate(131,44)"/>
<path d="M0 0 C1.65 0 3.3 0 5 0 C5 1.65 5 3.3 5 5 C3.35 5 1.7 5 0 5 C0 3.35 0 1.7 0 0 Z " fill="#7CCA57" transform="translate(39,44)"/>
<path d="M0 0 C1.65 0 3.3 0 5 0 C5 1.65 5 3.3 5 5 C3.35 5 1.7 5 0 5 C0 3.35 0 1.7 0 0 Z " fill="#A09DA3" transform="translate(68,39)"/>
<path d="M0 0 C1.65 0 3.3 0 5 0 C5 1.65 5 3.3 5 5 C3.35 5 1.7 5 0 5 C0 3.35 0 1.7 0 0 Z " fill="#89C56E" transform="translate(14,29)"/>
<path d="M0 0 C1.65 0 3.3 0 5 0 C5 1.65 5 3.3 5 5 C3.35 5 1.7 5 0 5 C0 3.35 0 1.7 0 0 Z " fill="#87B574" transform="translate(151,24)"/>
<path d="M0 0 C1.65 0 3.3 0 5 0 C5 1.65 5 3.3 5 5 C3.35 5 1.7 5 0 5 C0 3.35 0 1.7 0 0 Z " fill="#62B13E" transform="translate(141,24)"/>
<path d="M0 0 C1.65 0 3.3 0 5 0 C5 1.65 5 3.3 5 5 C3.35 5 1.7 5 0 5 C0 3.35 0 1.7 0 0 Z " fill="#8AC56F" transform="translate(24,19)"/>
<path d="M0 0 C1.65 0 3.3 0 5 0 C5 1.65 5 3.3 5 5 C3.35 5 1.7 5 0 5 C0 3.35 0 1.7 0 0 Z " fill="#91BF7D" transform="translate(127,4)"/>
<path d="M0 0 C1.65 0 3.3 0 5 0 C5 1.65 5 3.3 5 5 C3.35 5 1.7 5 0 5 C0 3.35 0 1.7 0 0 Z " fill="#87C669" transform="translate(122,4)"/>
<path d="M0 0 C1.65 0 3.3 0 5 0 C5 1.65 5 3.3 5 5 C3.35 5 1.7 5 0 5 C0 3.35 0 1.7 0 0 Z " fill="#92C978" transform="translate(43,4)"/>
<path d="M0 0 C1.65 0 3.3 0 5 0 C4.67 1.65 4.34 3.3 4 5 C2.68 5 1.36 5 0 5 C0 3.35 0 1.7 0 0 Z " fill="#738383" transform="translate(137,166)"/>
<path d="M0 0 C1.65 0 3.3 0 5 0 C5 1.65 5 3.3 5 5 C3.35 4.67 1.7 4.34 0 4 C0 2.68 0 1.36 0 0 Z " fill="#7E9E7F" transform="translate(4,137)"/>
<path d="M0 0 C1.65 0 3.3 0 5 0 C4.67 1.65 4.34 3.3 4 5 C2.68 5 1.36 5 0 5 C0 3.35 0 1.7 0 0 Z " fill="#9E9EA0" transform="translate(73,122)"/>
<path d="M0 0 C1.65 0 3.3 0 5 0 C4.67 1.65 4.34 3.3 4 5 C2.68 5 1.36 5 0 5 C0 3.35 0 1.7 0 0 Z " fill="#8BA681" transform="translate(59,64)"/>
<path d="M0 0 C2.475 0.495 2.475 0.495 5 1 C5 2.32 5 3.64 5 5 C3.35 5 1.7 5 0 5 C0 3.35 0 1.7 0 0 Z " fill="#919395" transform="translate(127,48)"/>
<path d="M0 0 C1.32 0 2.64 0 4 0 C4 1.65 4 3.3 4 5 C2.35 5 0.7 5 -1 5 C-0.67 3.35 -0.34 1.7 0 0 Z " fill="#9CC988" transform="translate(5,38)"/>
<path d="M0 0 C0 1.65 0 3.3 0 5 C-1.65 5 -3.3 5 -5 5 C-5 3.68 -5 2.36 -5 1 C-3 0 -3 0 0 0 Z " fill="#9CB091" transform="translate(58,136)"/>
<path d="M0 0 C1.98 0.495 1.98 0.495 4 1 C4 2.32 4 3.64 4 5 C2.35 5 0.7 5 -1 5 C-0.67 3.35 -0.34 1.7 0 0 Z " fill="#9C9E9D" transform="translate(45,121)"/>
<path d="M0 0 C1.65 0 3.3 0 5 0 C5.33 1.32 5.66 2.64 6 4 C4.02 4 2.04 4 0 4 C0 2.68 0 1.36 0 0 Z " fill="#93B384" transform="translate(97,107)"/>
<path d="M0 0 C1.32 0 2.64 0 4 0 C4.33 1.65 4.66 3.3 5 5 C3.35 5 1.7 5 0 5 C0 3.35 0 1.7 0 0 Z " fill="#63806C" transform="translate(54,141)"/>
<path d="M0 0 C1.65 0 3.3 0 5 0 C4.67 1.65 4.34 3.3 4 5 C2.68 5 1.36 5 0 5 C0 3.35 0 1.7 0 0 Z " fill="#95AC8C" transform="translate(59,116)"/>
<path d="M0 0 C1.65 0 3.3 0 5 0 C5 1.32 5 2.64 5 4 C3.35 4 1.7 4 0 4 C0 2.68 0 1.36 0 0 Z " fill="#70817F" transform="translate(117,176)"/>
<path d="M0 0 C1.65 0 3.3 0 5 0 C5 1.32 5 2.64 5 4 C3.35 4 1.7 4 0 4 C0 2.68 0 1.36 0 0 Z " fill="#516563" transform="translate(112,176)"/>
<path d="M0 0 C1.65 0 3.3 0 5 0 C5 1.32 5 2.64 5 4 C3.35 4 1.7 4 0 4 C0 2.68 0 1.36 0 0 Z " fill="#4C615F" transform="translate(102,176)"/>
<path d="M0 0 C1.65 0 3.3 0 5 0 C5 1.32 5 2.64 5 4 C3.35 4 1.7 4 0 4 C0 2.68 0 1.36 0 0 Z " fill="#607171" transform="translate(53,176)"/>
<path d="M0 0 C1.65 0 3.3 0 5 0 C5 1.32 5 2.64 5 4 C3.35 4 1.7 4 0 4 C0 2.68 0 1.36 0 0 Z " fill="#364C4D" transform="translate(117,171)"/>
<path d="M0 0 C1.65 0 3.3 0 5 0 C5 1.32 5 2.64 5 4 C3.35 4 1.7 4 0 4 C0 2.68 0 1.36 0 0 Z " fill="#1B3235" transform="translate(136,156)"/>
<path d="M0 0 C1.65 0 3.3 0 5 0 C5 1.32 5 2.64 5 4 C3.35 4 1.7 4 0 4 C0 2.68 0 1.36 0 0 Z " fill="#3B5452" transform="translate(97,151)"/>
<path d="M0 0 C1.65 0 3.3 0 5 0 C5 1.32 5 2.64 5 4 C3.35 4 1.7 4 0 4 C0 2.68 0 1.36 0 0 Z " fill="#3D5654" transform="translate(73,151)"/>
<path d="M0 0 C1.65 0 3.3 0 5 0 C5 1.32 5 2.64 5 4 C3.35 4 1.7 4 0 4 C0 2.68 0 1.36 0 0 Z " fill="#6D8675" transform="translate(68,146)"/>
<path d="M0 0 C1.65 0 3.3 0 5 0 C5 1.32 5 2.64 5 4 C3.35 4 1.7 4 0 4 C0 2.68 0 1.36 0 0 Z " fill="#577067" transform="translate(107,146)"/>
<path d="M0 0 C1.65 0 3.3 0 5 0 C5 1.32 5 2.64 5 4 C3.35 4 1.7 4 0 4 C0 2.68 0 1.36 0 0 Z " fill="#6D8279" transform="translate(102,146)"/>
<path d="M0 0 C2.475 0.495 2.475 0.495 5 1 C5 2.32 5 3.64 5 5 C3.35 4.67 1.7 4.34 0 4 C0 2.68 0 1.36 0 0 Z " fill="#7A917D" transform="translate(58,141)"/>
<path d="M0 0 C1.32 0 2.64 0 4 0 C4 1.65 4 3.3 4 5 C2.68 5 1.36 5 0 5 C0 3.35 0 1.7 0 0 Z " fill="#234138" transform="translate(151,141)"/>
<path d="M0 0 C1.32 0 2.64 0 4 0 C4 1.65 4 3.3 4 5 C2.68 5 1.36 5 0 5 C0 3.35 0 1.7 0 0 Z " fill="#214234" transform="translate(156,136)"/>
<path d="M0 0 C1.65 0 3.3 0 5 0 C5 1.32 5 2.64 5 4 C3.35 4 1.7 4 0 4 C0 2.68 0 1.36 0 0 Z " fill="#94B08A" transform="translate(107,127)"/>
<path d="M0 0 C1.32 0 2.64 0 4 0 C4 1.65 4 3.3 4 5 C2.68 5 1.36 5 0 5 C0 3.35 0 1.7 0 0 Z " fill="#84A17E" transform="translate(0,127)"/>
<path d="M0 0 C1.32 0 2.64 0 4 0 C4 1.65 4 3.3 4 5 C2.68 5 1.36 5 0 5 C0 3.35 0 1.7 0 0 Z " fill="#295137" transform="translate(161,126)"/>
<path d="M0 0 C1.65 0 3.3 0 5 0 C5 1.32 5 2.64 5 4 C3.35 4 1.7 4 0 4 C0 2.68 0 1.36 0 0 Z " fill="#9E9BA0" transform="translate(58,122)"/>
<path d="M0 0 C1.32 0 2.64 0 4 0 C4 1.65 4 3.3 4 5 C2.68 5 1.36 5 0 5 C0 3.35 0 1.7 0 0 Z " fill="#699269" transform="translate(0,122)"/>
<path d="M0 0 C1.65 0 3.3 0 5 0 C5 1.32 5 2.64 5 4 C3.35 4 1.7 4 0 4 C0 2.68 0 1.36 0 0 Z " fill="#567F5A" transform="translate(141,117)"/>
<path d="M0 0 C1.32 0 2.64 0 4 0 C4 1.65 4 3.3 4 5 C2.68 5 1.36 5 0 5 C0 3.35 0 1.7 0 0 Z " fill="#87A286" transform="translate(176,112)"/>
<path d="M0 0 C1.32 0 2.64 0 4 0 C4 1.65 4 3.3 4 5 C2.68 5 1.36 5 0 5 C0 3.35 0 1.7 0 0 Z " fill="#5B815E" transform="translate(171,112)"/>
<path d="M0 0 C1.32 0 2.64 0 4 0 C4 1.65 4 3.3 4 5 C2.68 5 1.36 5 0 5 C0 3.35 0 1.7 0 0 Z " fill="#77A172" transform="translate(30,112)"/>
<path d="M0 0 C1.65 0 3.3 0 5 0 C5 1.32 5 2.64 5 4 C3.35 4 1.7 4 0 4 C0 2.68 0 1.36 0 0 Z " fill="#7CA47B" transform="translate(141,103)"/>
<path d="M0 0 C1.32 0 2.64 0 4 0 C4 1.65 4 3.3 4 5 C2.68 5 1.36 5 0 5 C0 3.35 0 1.7 0 0 Z " fill="#82A875" transform="translate(176,102)"/>
<path d="M0 0 C1.32 0 2.64 0 4 0 C4 1.65 4 3.3 4 5 C2.68 5 1.36 5 0 5 C0 3.35 0 1.7 0 0 Z " fill="#6A9E64" transform="translate(25,102)"/>
<path d="M0 0 C1.32 0 2.64 0 4 0 C4 1.65 4 3.3 4 5 C2.68 5 1.36 5 0 5 C0 3.35 0 1.7 0 0 Z " fill="#759C72" transform="translate(176,97)"/>
<path d="M0 0 C1.32 0 2.64 0 4 0 C4 1.65 4 3.3 4 5 C2.68 5 1.36 5 0 5 C0 3.35 0 1.7 0 0 Z " fill="#86BD6E" transform="translate(30,63)"/>
<path d="M0 0 C1.65 0 3.3 0 5 0 C5 1.32 5 2.64 5 4 C3.35 4 1.7 4 0 4 C0 2.68 0 1.36 0 0 Z " fill="#9D9C9F" transform="translate(58,54)"/>
<path d="M0 0 C1.32 0 2.64 0 4 0 C4 1.65 4 3.3 4 5 C2.68 5 1.36 5 0 5 C0 3.35 0 1.7 0 0 Z " fill="#87BE70" transform="translate(35,54)"/>
<path d="M0 0 C1.32 0 2.64 0 4 0 C4 1.65 4 3.3 4 5 C2.68 5 1.36 5 0 5 C0 3.35 0 1.7 0 0 Z " fill="#8A968B" transform="translate(39,53)"/>
<path d="M0 0 C1.32 0 2.64 0 4 0 C4 1.65 4 3.3 4 5 C2.68 5 1.36 5 0 5 C0 3.35 0 1.7 0 0 Z " fill="#94C380" transform="translate(0,48)"/>
<path d="M0 0 C1.65 0 3.3 0 5 0 C5 1.32 5 2.64 5 4 C3.35 4 1.7 4 0 4 C0 2.68 0 1.36 0 0 Z " fill="#5EB039" transform="translate(136,44)"/>
<path d="M0 0 C1.65 0 3.3 0 5 0 C5 1.32 5 2.64 5 4 C3.35 4 1.7 4 0 4 C0 2.68 0 1.36 0 0 Z " fill="#9ED187" transform="translate(156,40)"/>
<path d="M0 0 C1.65 0 3.3 0 5 0 C5 1.32 5 2.64 5 4 C3.35 4 1.7 4 0 4 C0 2.68 0 1.36 0 0 Z " fill="#86C36B" transform="translate(107,30)"/>
<path d="M0 0 C1.65 0 3.3 0 5 0 C5 1.32 5 2.64 5 4 C3.35 4 1.7 4 0 4 C0 2.68 0 1.36 0 0 Z " fill="#84C467" transform="translate(63,30)"/>
<path d="M0 0 C1.32 0 2.64 0 4 0 C4 1.65 4 3.3 4 5 C2.68 5 1.36 5 0 5 C0 3.35 0 1.7 0 0 Z " fill="#99D07F" transform="translate(137,9)"/>
<path d="M0 0 C1.65 0 3.3 0 5 0 C5 1.32 5 2.64 5 4 C3.35 4 1.7 4 0 4 C0 2.68 0 1.36 0 0 Z " fill="#99CD81" transform="translate(117,0)"/>
<path d="M0 0 C1.65 0 3.3 0 5 0 C5 1.32 5 2.64 5 4 C3.35 4 1.7 4 0 4 C0 2.68 0 1.36 0 0 Z " fill="#94B984" transform="translate(53,0)"/>
<path d="M0 0 C1.32 0.33 2.64 0.66 4 1 C4 2.32 4 3.64 4 5 C2.68 5 1.36 5 0 5 C0 3.35 0 1.7 0 0 Z " fill="#719273" transform="translate(35,121)"/>
<path d="M0 0 C1.32 0 2.64 0 4 0 C3.67 1.65 3.34 3.3 3 5 C2.01 5 1.02 5 0 5 C0 3.35 0 1.7 0 0 Z " fill="#8EB27E" transform="translate(30,68)"/>
<path d="M0 0 C1.98 0 3.96 0 6 0 C6 0.99 6 1.98 6 3 C4.02 3 2.04 3 0 3 C0 2.01 0 1.02 0 0 Z " fill="#8AA483" transform="translate(97,74)"/>
</svg>
